<svg width="703" height="521" viewBox="0 0 703 521" xmlns="http://www.w3.org/2000/svg" xmlns:xlink="http://www.w3.org/1999/xlink" overflow="hidden"><defs><linearGradient x1="0.5" y1="1" x2="0.5" gradientUnits="objectBoundingBox" id="linear-gradient"><stop offset="0" stop-color="#808080" stop-opacity="0.251"/><stop offset="0.54" stop-color="#808080" stop-opacity="0.122"/><stop offset="1" stop-color="#808080" stop-opacity="0.102"/></linearGradient><linearGradient x1="0.5" y1="1" x2="0.5" y2="-0.001" xlink:href="#linear-gradient" id="linear-gradient-2"></linearGradient></defs><g id="Group_13" transform="translate(-205.361 -279.825)"><g id="Group_12"><g id="undraw_contact_us_15o2" transform="translate(205.361 279.825)"><g id="Group_1" opacity="0.1" transform="translate(255.812 40)"><ellipse cx="11.38" cy="14.9" rx="11.38" ry="14.9" id="Ellipse_1" fill="#3F3D56" transform="translate(42.891 307.579)"/><path d="M540.43 461C542.018 458.228 542.839 455.084 542.81 451.89 542.81 443.66 537.71 436.99 531.42 436.99 525.13 436.99 520 443.68 520 451.91 519.971 455.104 520.792 458.248 522.38 461.02 519.207 466.675 519.207 473.575 522.38 479.23 519.207 484.885 519.207 491.785 522.38 497.44 520.79 500.211 519.968 503.356 520 506.55 520 514.77 525.1 521.45 531.38 521.45 537.66 521.45 542.77 514.77 542.77 506.55 542.802 503.356 541.98 500.211 540.39 497.44 543.563 491.785 543.563 484.885 540.39 479.23 543.563 473.575 543.563 466.675 540.39 461.02Z" id="Path_1" fill="#3F3D56" transform="translate(-477.149 -202.271)"/><ellipse cx="11.38" cy="14.9" rx="11.38" ry="14.9" id="Ellipse_2" fill="#3F3D56" transform="translate(42.891 216.529)"/><ellipse cx="11.38" cy="14.9" rx="11.38" ry="14.9" id="Ellipse_3" fill="#3F3D56" transform="translate(42.891 198.319)"/><path d="M488.82 290.86C487.26 288.883 485.844 286.798 484.58 284.62L514.48 279.71 482.14 279.95C475.883 266.3 475.521 250.675 481.14 236.75L524.53 259.26 484.53 229.84C499.421 203.663 532.713 194.513 558.89 209.404 585.067 224.294 594.217 257.586 579.326 283.763 577.915 286.244 576.312 288.61 574.53 290.84 576.955 293.92 579.04 297.253 580.75 300.78L541.92 321 583.31 307.11C589.22 324.566 585.914 343.825 574.52 358.31 593.137 381.975 589.045 416.252 565.379 434.869 541.714 453.486 507.437 449.394 488.82 425.728 473.26 405.949 473.26 378.089 488.82 358.31 473.259 338.53 473.259 310.67 488.82 290.89Z" id="Path_2" fill="#6C63FF" transform="translate(-477.149 -202.271)"/><path d="M586.19 324.57C586.21 336.801 582.097 348.679 574.52 358.28 593.137 381.945 589.045 416.222 565.379 434.839 541.714 453.456 507.437 449.364 488.82 425.698 473.26 405.919 473.26 378.059 488.82 358.28 481.51 349 586.19 318.45 586.19 324.57Z" id="Path_3" opacity="0.1" transform="translate(-477.149 -202.271)"/></g><g id="Group_2" opacity="0.1" transform="translate(350.241 74.795)"><ellipse cx="8.51" cy="11.13" rx="8.51" ry="11.13" id="Ellipse_4" fill="#3F3D56" transform="translate(32.05 229.657)"/><path d="M671 445.26C672.183 443.191 672.794 440.844 672.77 438.46 672.77 432.31 668.96 427.32 664.27 427.32 659.58 427.32 655.76 432.32 655.76 438.46 655.734 440.845 656.349 443.193 657.54 445.26 655.167 449.486 655.167 454.644 657.54 458.87 655.167 463.096 655.167 468.254 657.54 472.48 656.349 474.547 655.734 476.895 655.76 479.28 655.76 485.43 659.57 490.42 664.27 490.42 668.97 490.42 672.77 485.42 672.77 479.28 672.794 476.896 672.183 474.549 671 472.48 673.354 468.249 673.354 463.101 671 458.87 673.354 454.639 673.354 449.491 671 445.26Z" id="Path_4" fill="#3F3D56" transform="translate(-623.72 -252.103)"/><ellipse cx="8.51" cy="11.13" rx="8.51" ry="11.13" id="Ellipse_5" fill="#3F3D56" transform="translate(32.05 161.617)"/><ellipse cx="8.51" cy="11.13" rx="8.51" ry="11.13" id="Ellipse_6" fill="#3F3D56" transform="translate(32.05 148.007)"/><path d="M632.44 318.11C631.272 316.635 630.213 315.078 629.27 313.45L651.62 309.78 627.45 309.96C622.764 299.761 622.482 288.083 626.67 277.67L659.1 294.5 629.19 272.5C640.431 253.003 665.349 246.309 684.846 257.55 704.344 268.791 711.037 293.709 699.796 313.206 698.811 314.916 697.703 316.551 696.48 318.1 698.29 320.404 699.849 322.895 701.13 325.53L672.13 340.6 703.06 330.22C707.474 343.264 705.003 357.655 696.49 368.48 710.415 386.153 707.377 411.769 689.704 425.694 672.031 439.619 646.415 436.581 632.49 418.908 620.837 404.118 620.837 383.27 632.49 368.48 620.862 353.7 620.862 332.88 632.49 318.1Z" id="Path_5" fill="#6C63FF" transform="translate(-623.72 -252.103)"/><path d="M705.2 343.3C705.214 352.439 702.141 361.315 696.48 368.49 710.405 386.163 707.367 411.779 689.694 425.704 672.021 439.629 646.405 436.591 632.48 418.918 620.827 404.128 620.827 383.28 632.48 368.49 627 361.56 705.2 338.73 705.2 343.3Z" id="Path_6" opacity="0.1" transform="translate(-623.72 -252.103)"/></g><g id="Group_3" opacity="0.1" transform="translate(590.541 0)"><ellipse cx="11.38" cy="14.9" rx="11.38" ry="14.9" id="Ellipse_7" fill="#3F3D56" transform="translate(43.659 307.579)"/><path d="M1081.57 421C1079.98 418.228 1079.16 415.084 1079.19 411.89 1079.19 403.66 1084.29 396.99 1090.58 396.99 1096.87 396.99 1101.96 403.66 1101.96 411.89 1101.99 415.084 1101.17 418.228 1099.58 421 1102.75 426.655 1102.75 433.555 1099.58 439.21 1102.75 444.865 1102.75 451.765 1099.58 457.42 1101.17 460.191 1101.99 463.336 1101.96 466.53 1101.96 474.75 1096.86 481.43 1090.58 481.43 1084.3 481.43 1079.19 474.75 1079.19 466.53 1079.16 463.336 1079.98 460.191 1081.57 457.42 1078.4 451.765 1078.4 444.865 1081.57 439.21 1078.4 433.555 1078.4 426.655 1081.57 421Z" id="Path_7" fill="#3F3D56" transform="translate(-1035.54 -162.271)"/><ellipse cx="11.38" cy="14.9" rx="11.38" ry="14.9" id="Ellipse_8" fill="#3F3D56" transform="translate(43.659 216.529)"/><ellipse cx="11.38" cy="14.9" rx="11.38" ry="14.9" id="Ellipse_9" fill="#3F3D56" transform="translate(43.659 198.319)"/><path d="M1133.18 250.86C1134.74 248.883 1136.16 246.798 1137.42 244.62L1107.52 239.71 1139.86 239.95C1146.12 226.3 1146.48 210.675 1140.86 196.75L1097.47 219.26 1137.47 189.84C1122.58 163.663 1089.29 154.513 1063.11 169.404 1036.93 184.294 1027.78 217.586 1042.67 243.763 1044.08 246.244 1045.69 248.61 1047.47 250.84 1045.05 253.92 1042.96 257.253 1041.25 260.78L1080.08 281 1038.69 267.11C1032.78 284.566 1036.09 303.825 1047.48 318.31 1028.86 341.975 1032.96 376.252 1056.62 394.869 1080.29 413.486 1114.56 409.394 1133.18 385.728 1148.74 365.949 1148.74 338.089 1133.18 318.31 1148.74 298.53 1148.74 270.67 1133.18 250.89Z" id="Path_8" fill="#6C63FF" transform="translate(-1035.54 -162.271)"/><path d="M1035.81 284.57C1035.79 296.801 1039.9 308.679 1047.48 318.28 1028.86 341.945 1032.96 376.222 1056.62 394.839 1080.29 413.456 1114.56 409.364 1133.18 385.698 1148.74 365.919 1148.74 338.059 1133.18 318.28 1140.49 309 1035.81 278.45 1035.81 284.57Z" id="Path_9" opacity="0.1" transform="translate(-1035.54 -162.271)"/></g><g id="Group_4" opacity="0.1" transform="translate(494.756 83.832)"><ellipse cx="8.51" cy="11.13" rx="8.51" ry="11.13" id="Ellipse_10" fill="#3F3D56" transform="translate(32.454 229.657)"/><path d="M974 439.26C972.817 437.191 972.206 434.844 972.23 432.46 972.23 426.31 976.04 421.32 980.73 421.32 985.42 421.32 989.24 426.32 989.24 432.46 989.266 434.845 988.651 437.193 987.46 439.26 989.833 443.486 989.833 448.644 987.46 452.87 989.833 457.096 989.833 462.254 987.46 466.48 988.651 468.547 989.266 470.895 989.24 473.28 989.24 479.43 985.43 484.42 980.73 484.42 976.03 484.42 972.23 479.42 972.23 473.28 972.206 470.896 972.817 468.549 974 466.48 971.646 462.249 971.646 457.101 974 452.87 971.646 448.639 971.646 443.491 974 439.26Z" id="Path_10" fill="#3F3D56" transform="translate(-939.756 -246.103)"/><ellipse cx="8.51" cy="11.13" rx="8.51" ry="11.13" id="Ellipse_11" fill="#3F3D56" transform="translate(32.454 161.617)"/><ellipse cx="8.51" cy="11.13" rx="8.51" ry="11.13" id="Ellipse_12" fill="#3F3D56" transform="translate(32.454 148.007)"/><path d="M1012.56 312.11C1013.73 310.635 1014.79 309.078 1015.73 307.45L993.38 303.78 1017.55 303.96C1022.24 293.761 1022.52 282.083 1018.33 271.67L985.9 288.5 1015.81 266.5C1004.57 247.003 979.651 240.309 960.154 251.55 940.656 262.791 933.963 287.709 945.204 307.206 946.189 308.916 947.297 310.551 948.52 312.1 946.71 314.404 945.151 316.895 943.87 319.53L972.87 334.6 942 324.23C937.586 337.274 940.057 351.665 948.57 362.49 934.645 380.163 937.683 405.779 955.356 419.704 973.029 433.629 998.645 430.591 1012.57 412.918 1024.22 398.128 1024.22 377.28 1012.57 362.49 1024.2 347.71 1024.2 326.891 1012.57 312.11Z" id="Path_11" fill="#6C63FF" transform="translate(-939.756 -246.103)"/><path d="M939.8 337.3C939.786 346.439 942.859 355.315 948.52 362.49 934.595 380.163 937.633 405.779 955.306 419.704 972.979 433.629 998.595 430.591 1012.52 412.918 1024.17 398.128 1024.17 377.28 1012.52 362.49 1018 355.56 939.8 332.73 939.8 337.3Z" id="Path_12" opacity="0.1" transform="translate(-939.756 -246.103)"/></g><ellipse cx="351.5" cy="8.86" rx="351.5" ry="8.86" id="Ellipse_19" fill="#6C63FF" opacity="0.1" transform="matrix(1 0 0 1 0 430.53)"/><ellipse cx="351.5" cy="8.86" rx="351.5" ry="8.86" id="Ellipse_20" fill="#6C63FF" opacity="0.1" transform="matrix(1 0 0 1 0 503.28)"/><ellipse cx="351.5" cy="8.86" rx="351.5" ry="8.86" id="Ellipse_21" fill="#6C63FF" opacity="0.1" transform="matrix(1 0 0 1 0 300.498)"/><ellipse cx="351.5" cy="8.86" rx="351.5" ry="8.86" id="Ellipse_22" fill="#6C63FF" opacity="0.1" transform="matrix(1 0 0 1 0 369.04)"/><path d="M860.79 273C857.22 272.326 853.53 272.73 850.19 274.16 846.135 275.967 841.505 275.967 837.45 274.16 832.649 272.053 827.166 272.159 822.45 274.45 821.123 275.155 819.643 275.526 818.14 275.53 812.06 275.53 807.01 269.41 805.96 261.34 807.157 260.448 808.174 259.339 808.96 258.07 812.52 252.33 818.03 248.64 824.23 248.64 830.43 248.64 835.87 252.28 839.43 257.96 841.587 261.451 845.417 263.554 849.52 263.5L849.68 263.5C854.57 263.45 858.76 267.33 860.79 273Z" id="Path_19" fill="#6C63FF" opacity="0.1" transform="translate(-336.59 -162.271)"/><path d="M879.3 247.65 869.48 253.87 875.48 243.03C873.79 241.685 871.7 240.942 869.54 240.92L869.38 240.92C868.71 240.929 868.041 240.879 867.38 240.77L864 242.88 865.43 240.28C863.067 239.462 861.025 237.914 859.6 235.86L853.6 239.64 857.36 232.8C853.88 228.62 849.18 226.06 844.02 226.06 837.82 226.06 832.31 229.74 828.74 235.48 826.598 238.974 822.746 241.05 818.65 240.92L818.32 240.92C811.48 240.92 805.94 248.67 805.94 258.23 805.94 267.79 811.48 275.55 818.32 275.55 819.822 275.54 821.3 275.17 822.63 274.47 827.344 272.173 832.828 272.063 837.63 274.17 841.682 275.989 846.318 275.989 850.37 274.17 855.132 272.111 860.552 272.217 865.23 274.46 866.545 275.148 868.006 275.512 869.49 275.52 876.33 275.52 881.87 267.76 881.87 258.2 881.911 254.524 881.028 250.896 879.3 247.65Z" id="Path_20" fill="#6C63FF" opacity="0.1" transform="translate(-342.469 -162.271)"/><path d="M443.26 267.59C440.758 267.117 438.172 267.399 435.83 268.4 432.995 269.667 429.755 269.667 426.92 268.4 423.562 266.925 419.726 267.002 416.43 268.61 415.503 269.093 414.475 269.35 413.43 269.36 409.18 269.36 405.64 265.08 404.9 259.43 405.748 258.808 406.471 258.031 407.03 257.14 409.52 253.14 413.38 250.54 417.72 250.54 422.06 250.54 425.87 253.09 428.36 257.06 429.872 259.504 432.556 260.977 435.43 260.94L435.54 260.94C438.9 260.92 441.83 263.64 443.26 267.59Z" id="Path_21" fill="#6C63FF" opacity="0.1" transform="translate(-183.131 -162.271)"/><path d="M456.21 249.86 449.34 254.22 453.51 246.63C452.331 245.686 450.87 245.165 449.36 245.15L449.24 245.15C448.764 245.159 448.289 245.122 447.82 245.04L445.49 246.52 446.49 244.7C444.838 244.125 443.411 243.044 442.41 241.61L438.24 244.25 440.88 239.47C438.635 236.571 435.206 234.834 431.54 234.74 427.2 234.74 423.34 237.32 420.85 241.34 419.348 243.787 416.65 245.241 413.78 245.15L413.55 245.15C408.76 245.15 404.88 250.57 404.88 257.27 404.88 263.97 408.76 269.39 413.55 269.39 414.597 269.382 415.626 269.121 416.55 268.63 419.845 267.031 423.676 266.958 427.03 268.43 429.854 269.742 433.109 269.764 435.95 268.49 439.282 267.048 443.076 267.121 446.35 268.69 447.276 269.175 448.305 269.429 449.35 269.43 454.13 269.43 458.01 264 458.01 257.31 458.05 254.714 457.431 252.151 456.21 249.86Z" id="Path_22" fill="#6C63FF" opacity="0.1" transform="translate(-184.981 -162.271)"/><path d="M321.59 346C324.089 345.528 326.672 345.81 329.01 346.81 331.848 348.077 335.092 348.077 337.93 346.81 341.287 345.338 345.121 345.411 348.42 347.01 349.344 347.502 350.373 347.763 351.42 347.77 355.67 347.77 359.21 343.48 359.94 337.83 359.092 337.21 358.373 336.433 357.82 335.54 355.32 331.54 351.46 328.95 347.13 328.95 342.8 328.95 338.98 331.49 336.48 335.47 334.969 337.911 332.291 339.383 329.42 339.35L329.31 339.35C325.94 339.37 323 342.08 321.59 346Z" id="Path_23" fill="#6C63FF" opacity="0.1" transform="translate(-152.174 -178.481)"/><path d="M308.63 328.3 315.51 332.66 311.33 325.08C312.512 324.133 313.976 323.609 315.49 323.59L315.6 323.59C316.079 323.597 316.557 323.563 317.03 323.49L319.36 324.96 318.36 323.15C320.008 322.574 321.432 321.493 322.43 320.06L326.6 322.7 324 317.91C326.246 315.013 329.676 313.28 333.34 313.19 337.67 313.19 341.54 315.77 344.03 319.79 345.53 322.233 348.224 323.687 351.09 323.6L351.33 323.6C356.11 323.6 359.99 329.03 359.99 335.72 359.99 342.41 356.11 347.84 351.33 347.84 350.284 347.835 349.255 347.578 348.33 347.09 345.034 345.482 341.198 345.405 337.84 346.88 336.435 347.529 334.908 347.87 333.36 347.88 331.831 347.879 330.319 347.559 328.92 346.94 325.591 345.498 321.801 345.571 318.53 347.14 317.604 347.625 316.575 347.879 315.53 347.88 310.74 347.88 306.86 342.46 306.86 335.76 306.813 333.164 307.422 330.598 308.63 328.3Z" id="Path_24" fill="#6C63FF" opacity="0.1" transform="translate(-148.042 -177.379)"/><path d="M716.31 652.89C718.92 648.05 715.96 642.13 712.56 637.82 709.16 633.51 705 629.02 705.09 623.53 705.22 615.64 713.6 610.97 720.29 606.79 725.258 603.675 729.84 599.982 733.94 595.79 735.655 594.176 737.073 592.274 738.13 590.17 739.52 587.09 739.48 583.57 739.39 580.17 739.103 568.91 738.547 557.657 737.72 546.41" id="Path_25" stroke="#3F3D56" stroke-width="4" stroke-miterlimit="10" fill="none" transform="translate(-293.757 -216.37)"/><path d="M750.45 545.85C750.254 541.658 747.936 537.855 744.3 535.76L741.54 541.21 741.63 534.61C735.108 532.69 728.265 536.42 726.344 542.942 724.424 549.464 728.154 556.307 734.676 558.228 741.198 560.148 748.042 556.417 749.962 549.896 750.348 548.584 750.513 547.216 750.45 545.85Z" id="Path_26" fill="#6C63FF" transform="translate(-299.177 -198.814)"/><path d="M728.49 629.17C725.38 635.215 717.957 637.595 711.912 634.484 708.013 632.478 705.475 628.549 705.25 624.17 705.158 622.465 705.431 620.761 706.05 619.17 708.526 612.833 715.672 609.703 722.009 612.179 725.258 613.449 727.817 616.036 729.05 619.3L721.36 625.56 729.82 623.56C729.83 625.509 729.374 627.433 728.49 629.17Z" id="Path_27" fill="#F3F2F8" transform="translate(-291.609 -206.395)"/><path d="M722.41 605.27C715.619 605.59 709.854 600.344 709.534 593.553 709.264 587.824 712.987 582.667 718.51 581.12L718.44 586.19 721.23 580.67 721.23 580.67C728.023 580.352 733.787 585.602 734.105 592.395 734.423 599.188 729.173 604.952 722.38 605.27Z" id="Path_28" fill="#6C63FF" transform="translate(-293.184 -203.389)"/><path d="M752.3 585.38C745.51 585.731 739.722 580.511 739.371 573.722 739.02 566.932 744.24 561.144 751.029 560.793 753.372 560.672 755.7 561.222 757.74 562.38L755.57 568.38 760 564C765.011 568.594 765.349 576.381 760.755 581.393 758.559 583.787 755.505 585.217 752.26 585.37Z" id="Path_29" fill="#F3F2F8" transform="translate(-304.137 -201.435)"/><path d="M748.79 549.13C745.95 549.44 743.19 550.32 740.33 550.5 737.47 550.68 734.33 549.99 732.55 547.78 731.713 546.492 730.951 545.157 730.27 543.78 729.493 542.567 728.428 541.564 727.17 540.86 724.079 546.915 726.482 554.33 732.537 557.421 738.592 560.512 746.007 558.109 749.098 552.054 749.585 551.1 749.945 550.087 750.17 549.04 749.72 549.05 749.25 549.08 748.79 549.13Z" id="Path_30" opacity="0.1" transform="translate(-299.107 -199.029)"/><path d="M752.3 585.38C745.509 585.702 739.743 580.457 739.422 573.666 739.326 571.651 739.727 569.643 740.59 567.82 741.566 568.479 742.405 569.321 743.06 570.3 743.795 571.702 744.61 573.061 745.5 574.37 747.42 576.62 750.7 577.37 753.67 577.22 756.64 577.07 759.51 576.22 762.47 575.97 762.88 575.97 763.29 575.91 763.71 575.9 762.452 581.254 757.794 585.124 752.3 585.38Z" id="Path_31" fill="#F3F2F8" opacity="0.1" transform="translate(-304.078 -201.623)"/><path d="M722.41 605.27C715.619 605.588 709.856 600.341 709.537 593.55 709.447 591.622 709.811 589.701 710.6 587.94 711.615 588.608 712.499 589.455 713.21 590.44 714.016 591.875 714.908 593.261 715.88 594.59 717.95 596.9 721.45 597.72 724.59 597.59 727.73 597.46 730.59 596.78 733.59 596.59 732.06 601.547 727.592 605.017 722.41 605.27Z" id="Path_32" fill="#F3F2F8" opacity="0.1" transform="translate(-293.066 -203.558)"/><path d="M728.49 629.17C725.38 635.215 717.957 637.595 711.912 634.484 708.013 632.478 705.475 628.549 705.25 624.17 705.158 622.465 705.431 620.761 706.05 619.17 707.064 619.836 707.974 620.648 708.75 621.58 709.92 623 710.69 624.58 712.05 625.95 714.56 628.42 718.63 629.44 722.24 629.53 724.329 629.536 726.416 629.416 728.49 629.17Z" id="Path_33" fill="#F3F2F8" opacity="0.1" transform="translate(-291.312 -206.535)"/><path d="M106.31 580.89C108.92 576.05 105.96 570.13 102.56 565.82 99.16 561.51 95 557 95.09 551.53 95.22 543.64 103.6 538.97 110.29 534.79 115.258 531.675 119.84 527.982 123.94 523.79 125.655 522.176 127.073 520.274 128.13 518.17 129.52 515.09 129.48 511.57 129.39 508.17 129.097 496.91 128.54 485.657 127.72 474.41" id="Path_34" stroke="#3F3D56" stroke-width="4" stroke-miterlimit="10" fill="none" transform="translate(-52 -198.305)"/><path d="M140.45 473.85C140.254 469.658 137.936 465.855 134.3 463.76L131.54 469.21 131.63 462.61C125.108 460.69 118.265 464.42 116.344 470.942 114.424 477.464 118.154 484.307 124.676 486.228 131.198 488.148 138.042 484.417 139.962 477.896 140.348 476.584 140.513 475.216 140.45 473.85Z" id="Path_35" fill="#F3F2F8" transform="translate(-52 -191.738)"/><path d="M118.49 557.17C115.38 563.215 107.957 565.595 101.912 562.484 98.0127 560.478 95.475 556.549 95.25 552.17 95.158 550.465 95.4307 548.761 96.05 547.17 98.5264 540.833 105.672 537.703 112.009 540.179 115.258 541.449 117.817 544.036 119.05 547.3L111.36 553.56 119.82 551.56C119.83 553.509 119.374 555.433 118.49 557.17Z" id="Path_36" fill="#F3F2F8" transform="translate(-52 -199.32)"/><path d="M112.41 533.27C105.619 533.59 99.8543 528.344 99.5344 521.553 99.2645 515.824 102.987 510.667 108.51 509.12L108.44 514.19 111.23 508.67 111.23 508.67C118.023 508.352 123.787 513.602 124.105 520.395 124.423 527.188 119.173 532.952 112.38 533.27Z" id="Path_37" fill="#F3F2F8" transform="translate(-52 -196.313)"/><path d="M142.3 513.38C135.51 513.731 129.722 508.511 129.371 501.722 129.02 494.932 134.24 489.144 141.029 488.793 143.372 488.672 145.7 489.222 147.74 490.38L145.57 496.38 150 492C155.011 496.594 155.349 504.381 150.755 509.393 148.559 511.787 145.505 513.217 142.26 513.37Z" id="Path_38" fill="#F3F2F8" transform="translate(-52 -194.359)"/><path d="M138.79 477.13C135.95 477.44 133.19 478.32 130.33 478.5 127.47 478.68 124.33 477.99 122.55 475.78 121.713 474.492 120.952 473.157 120.27 471.78 119.493 470.566 118.428 469.564 117.17 468.86 114.079 474.915 116.482 482.33 122.537 485.421 128.592 488.512 136.007 486.109 139.098 480.054 139.585 479.1 139.945 478.087 140.17 477.04 139.72 477.05 139.25 477.08 138.79 477.13Z" id="Path_39" opacity="0.1" transform="translate(-52 -192.039)"/><path d="M142.3 513.38C135.509 513.702 129.743 508.457 129.422 501.666 129.326 499.651 129.727 497.643 130.59 495.82 131.566 496.479 132.405 497.321 133.06 498.3 133.795 499.702 134.61 501.061 135.5 502.37 137.42 504.62 140.7 505.37 143.67 505.22 146.64 505.07 149.51 504.22 152.47 503.97 152.88 503.97 153.29 503.91 153.71 503.9 152.452 509.254 147.794 513.124 142.3 513.38Z" id="Path_40" opacity="0.1" transform="translate(-52 -194.637)"/><path d="M112.41 533.27C105.619 533.588 99.8556 528.341 99.5374 521.55 99.4471 519.622 99.8111 517.701 100.6 515.94 101.615 516.608 102.499 517.455 103.21 518.44 104.016 519.875 104.908 521.261 105.88 522.59 107.95 524.9 111.45 525.72 114.59 525.59 117.73 525.46 120.59 524.78 123.59 524.59 122.06 529.547 117.592 533.017 112.41 533.27Z" id="Path_41" fill="#F3F2F8" opacity="0.1" transform="translate(-52 -196.575)"/><path d="M118.49 557.17C115.38 563.215 107.957 565.595 101.912 562.484 98.0127 560.478 95.475 556.549 95.25 552.17 95.158 550.465 95.4307 548.761 96.05 547.17 97.064 547.836 97.9738 548.648 98.75 549.58 99.92 551 100.69 552.58 102.05 553.95 104.56 556.42 108.63 557.44 112.24 557.53 114.329 557.536 116.416 557.416 118.49 557.17Z" id="Path_42" fill="#F3F2F8" opacity="0.1" transform="translate(-52 -199.56)"/><path d="M512.52 498.52C509.91 493.69 512.87 487.77 516.28 483.46 519.69 479.15 523.83 474.66 523.74 469.17 523.62 461.27 515.24 456.61 508.54 452.43 503.574 449.316 498.995 445.624 494.9 441.43 493.177 439.825 491.755 437.925 490.7 435.82 489.32 432.73 489.36 429.22 489.44 425.82 489.74 414.56 490.297 403.307 491.11 392.06" id="Path_43" stroke="#3F3D56" stroke-width="4" stroke-miterlimit="10" fill="none" transform="translate(-213.916 -188.798)"/><path d="M478.39 391.49C478.582 387.3 480.897 383.496 484.53 381.4L487.29 386.85 487.21 380.25C488.524 379.868 489.892 379.703 491.26 379.76 498.051 380.077 503.3 385.838 502.984 392.63 502.667 399.421 496.905 404.67 490.114 404.353 483.325 404.037 478.077 398.279 478.39 391.49Z" id="Path_44" fill="#F3F2F8" transform="translate(-208.402 -183.644)"/><path d="M500.34 474.81C503.446 480.857 510.867 483.242 516.914 480.135 522.962 477.029 525.346 469.609 522.24 463.561 519.134 457.514 511.713 455.129 505.665 458.236 502.931 459.64 500.82 462.018 499.75 464.9L507.44 471.16 498.98 469.16C498.973 471.125 499.44 473.063 500.34 474.81Z" id="Path_45" fill="#6C63FF" transform="translate(-215.96 -191.224)"/><path d="M506.42 450.91C513.211 451.237 518.981 445.996 519.307 439.206 519.583 433.471 515.858 428.308 510.33 426.76L510.39 431.83 507.6 426.31 507.6 426.31C500.81 425.976 495.034 431.21 494.7 438 494.63 439.42 494.809 440.842 495.23 442.2 496.743 447.178 501.223 450.665 506.42 450.91Z" id="Path_46" fill="#F3F2F8" transform="translate(-214.387 -188.219)"/><path d="M476.54 431C483.33 431.346 489.114 426.122 489.46 419.332 489.806 412.542 484.582 406.758 477.792 406.412 475.453 406.293 473.127 406.844 471.09 408L473.27 414 468.79 409.71C466.376 411.896 464.936 414.957 464.79 418.21 464.73 419.349 464.835 420.491 465.1 421.6 466.389 426.935 471.057 430.77 476.54 431Z" id="Path_47" fill="#F3F2F8" transform="translate(-203.424 -186.263)"/><path d="M480.05 394.77C482.89 395.08 485.65 395.96 488.5 396.14 491.35 396.32 494.5 395.63 496.29 393.42 497.124 392.132 497.882 390.796 498.56 389.42 499.341 388.206 500.409 387.203 501.67 386.5 504.765 392.553 502.367 399.969 496.314 403.064 490.26 406.16 482.844 403.761 479.749 397.708 479.258 396.747 478.895 395.726 478.67 394.67 479.12 394.68 479.58 394.72 480.05 394.77Z" id="Path_48" opacity="0.1" transform="translate(-208.47 -184.042)"/><path d="M476.54 431C483.337 431.313 489.1 426.056 489.413 419.259 489.505 417.254 489.106 415.256 488.25 413.44 487.271 414.099 486.429 414.941 485.77 415.92 485.035 417.322 484.22 418.681 483.33 419.99 481.42 422.24 478.14 422.99 475.17 422.84 472.2 422.69 469.33 421.84 466.37 421.59 465.96 421.59 465.54 421.53 465.13 421.52 466.385 426.876 471.045 430.747 476.54 431Z" id="Path_49" opacity="0.1" transform="translate(-203.497 -186.643)"/><path d="M506.42 450.91C513.205 451.237 518.971 446.001 519.298 439.216 519.391 437.28 519.025 435.348 518.23 433.58 517.216 434.246 516.335 435.093 515.63 436.08 514.824 437.515 513.932 438.901 512.96 440.23 510.88 442.54 507.39 443.36 504.24 443.23 501.09 443.1 498.24 442.42 495.24 442.23 496.762 447.193 501.235 450.665 506.42 450.91Z" id="Path_50" opacity="0.1" transform="translate(-214.505 -188.587)"/><path d="M500.34 474.81C503.471 480.845 510.901 483.199 516.936 480.069 522.469 477.198 524.983 470.645 522.79 464.81 521.772 465.47 520.861 466.283 520.09 467.22 518.92 468.64 518.09 470.22 516.79 471.59 514.27 474.06 510.21 475.08 506.59 475.17 504.501 475.171 502.415 475.051 500.34 474.81Z" id="Path_51" opacity="0.1" transform="translate(-216.247 -191.579)"/><circle cx="99.96" cy="99.96" r="99.96" id="Ellipse_23" fill="#A09EB9" transform="translate(381.639 118.596)"/><path d="M874.64 426.59C871.16 423.11 862.79 417.86 858.64 415.9 853.85 413.6 852.09 413.64 848.7 416.09 845.88 418.09 844.05 420.02 840.81 419.31 837.57 418.6 831.15 413.76 824.94 407.57 818.73 401.38 813.91 395 813.22 391.71 812.53 388.42 814.43 386.63 816.45 383.81 818.89 380.42 818.96 378.66 816.64 373.87 814.64 369.72 809.45 361.37 805.94 357.87 802.43 354.37 801.67 355.14 799.75 355.87 797.774 356.698 795.876 357.702 794.08 358.87 790.6 361.2 788.65 363.14 787.28 366.06 785.91 368.98 784.36 374.4 792.33 388.59 798.209 399.445 805.656 409.375 814.43 418.06L814.43 418.06C823.144 426.854 833.108 434.314 844 440.2 858.18 448.2 863.61 446.61 866.53 445.25 869.45 443.89 871.39 441.96 873.71 438.45 874.88 436.655 875.884 434.757 876.71 432.78 877.37 430.86 878.15 430.08 874.64 426.59Z" id="Path_52" fill="#FFFFFF" transform="translate(-339.124 -183.842)"/><path d="M831.73 300.86C776.502 300.832 731.708 345.582 731.68 400.81 731.652 456.038 776.401 500.832 831.63 500.86 886.858 500.888 931.652 456.138 931.68 400.91 931.68 400.882 931.68 400.855 931.68 400.827 931.662 345.631 886.926 300.888 831.73 300.86ZM831.73 487.48C783.863 487.48 745.06 448.677 745.06 400.81 745.06 352.943 783.863 314.14 831.73 314.14 879.596 314.14 918.4 352.943 918.4 400.81 918.4 448.677 879.596 487.48 831.73 487.48Z" id="Path_53" opacity="0.1" transform="translate(-350.119 -182.259)"/><circle cx="99.96" cy="99.96" r="99.96" id="Ellipse_24" fill="#A09EB9" transform="translate(252.708 236.31)"/><path d="M658.93 522.44 629 552.89C628.785 553.096 628.777 553.438 628.984 553.654 628.989 553.659 628.994 553.665 629 553.67L650 576C651.411 577.411 651.411 579.699 650 581.11 648.589 582.521 646.301 582.521 644.89 581.11L624 558.86C623.778 558.641 623.422 558.641 623.2 558.86L618.11 564C613.9 568.305 608.132 570.732 602.11 570.73 595.975 570.701 590.108 568.208 585.83 563.81L580.94 558.81C580.718 558.591 580.362 558.591 580.14 558.81L559.3 581.01C557.889 582.421 555.601 582.421 554.19 581.01 552.779 579.599 552.779 577.311 554.19 575.9L575.11 553.62C575.302 553.395 575.302 553.065 575.11 552.84L545.18 522.39C544.966 522.175 544.618 522.174 544.402 522.388 544.298 522.492 544.239 522.633 544.24 522.78L544.24 583.71C544.256 588.613 548.227 592.584 553.13 592.6L651 592.6C655.903 592.583 659.874 588.613 659.89 583.71L659.89 522.83C659.903 522.527 659.668 522.27 659.365 522.257 659.199 522.249 659.04 522.317 658.93 522.44Z" id="Path_54" fill="#FFFFFF" transform="translate(-251.328 -207.853)"/><path d="M602.08 563.5C606.179 563.54 610.119 561.917 613 559L656.59 514.63C655.043 513.348 653.099 512.642 651.09 512.63L553.15 512.63C551.14 512.637 549.195 513.344 547.65 514.63L591.25 559C594.105 561.9 598.011 563.523 602.08 563.5Z" id="Path_55" fill="#FFFFFF" transform="translate(-251.344 -205.427)"/><path d="M600.82 452.69C545.592 452.662 500.798 497.412 500.77 552.64 500.742 607.868 545.492 652.662 600.72 652.69 655.948 652.718 700.742 607.969 700.77 552.74 700.77 552.712 700.77 552.685 700.77 552.657 700.752 497.461 656.016 452.718 600.82 452.69ZM600.82 639.31C552.953 639.31 514.15 600.507 514.15 552.64 514.15 504.773 552.953 465.97 600.82 465.97 648.687 465.97 687.49 504.773 687.49 552.64 687.49 600.507 648.687 639.31 600.82 639.31Z" id="Path_56" opacity="0.1" transform="translate(-248.838 -216.37)"/><path d="M840.93 603.88C840.023 601.667 839.093 599.46 838.14 597.26 837.355 595.113 836.201 593.12 834.73 591.37 834.171 590.74 833.491 590.23 832.73 589.87 831.893 589.561 831.012 589.386 830.12 589.35 828.76 589.179 827.387 589.142 826.02 589.24 825.49 589.08 824.89 588.87 824.3 588.63 830.375 587.034 834.693 581.656 834.94 575.38 834.94 575.18 834.94 574.97 834.94 574.77 834.973 566.9 828.62 560.493 820.75 560.46 820.75 560.46 820.75 560.46 820.75 560.46 818.116 560.455 815.534 561.193 813.3 562.59 807.226 561.212 801.006 564.211 798.3 569.82 794.951 573.024 793.1 577.486 793.2 582.12 793.2 582.33 793.2 582.55 793.2 582.75 793.46 590.52 798.48 596.75 804.82 597.38 804.142 597.685 803.52 598.1 802.98 598.61 801.04 600.48 800.72 603.45 800.51 606.15L800.36 608.15 797 609.35C796.677 609.465 796.509 609.82 796.624 610.142 796.667 610.262 796.746 610.366 796.85 610.44L800.06 612.73 800.06 613.3C800.052 613.518 800.072 613.737 800.12 613.95 799.572 614.433 799.147 615.04 798.88 615.72 798.567 616.77 798.469 617.872 798.59 618.96L798.71 621.75C798.694 623.85 798.981 625.941 799.56 627.96 799.98 629.2 801.8 632.19 803.11 632.21 801.9 637.71 801.58 649.31 801.58 649.31 801.43 649.46 801.85 649.6 802.58 649.72 803.3 655.24 805.65 670.72 809.82 677.53 810.476 679.75 811.001 682.008 811.39 684.29 811.39 684.29 812.58 699 814.15 703.37 815.49 707.09 816.55 716.27 816.84 718.93 816.286 719.073 815.858 719.512 815.73 720.07 814.94 722.45 809.82 726.07 809.82 726.07 808.251 726.854 806.769 727.803 805.4 728.9 803.79 730.35 803.85 731.66 811 730.84 824.8 729.25 827.16 724.84 827.16 724.84 827.16 724.84 826.94 724.1 826.61 723.14 826.189 721.646 825.58 720.212 824.8 718.87 824.6 718.68 824.4 719 824.16 719.5 823.119 713.119 822.803 706.642 823.22 700.19 823.22 700.19 823.61 693.43 821.64 688.66 821.202 686.162 821.202 683.608 821.64 681.11 822.43 677.93 818.49 662.42 818.49 662.42L816.23 651C816.538 651.39 816.753 651.845 816.86 652.33L816.92 652.56 816.98 652.89C817.003 653.007 817.058 653.114 817.14 653.2 818.68 659.6 822.9 677.33 822.9 679.93 822.9 683.11 826.84 691.06 826.84 691.06 826.84 691.06 828.41 704.18 831.17 709.34 833.27 713.27 833.32 719.03 833.22 721.57L833.22 721.57C833.22 721.57 832.75 724.84 831.96 725.63 831.332 726.411 830.829 727.285 830.47 728.22L830.38 728.41C830.38 728.41 829.2 730.8 829.99 731.2 832.995 732.379 836.247 732.788 839.45 732.39 839.45 732.39 841.03 730.39 841.03 729.61 840.997 729.134 840.937 728.659 840.85 728.19 840.56 726.31 840.02 723.35 840.01 723.32 840.34 722.04 839.01 718.48 839.01 718.48L838.61 707.35C839.342 699.814 838.4 692.209 835.85 685.08 835.85 685.08 833.85 677.93 834.28 675.94 834.71 673.95 833.49 652.88 833.49 652.88L833.37 652.58C833.263 651.09 833.303 649.592 833.49 648.11 833.88 643.34 832.31 633.4 831.91 633.01 831.584 631.942 831.396 630.836 831.35 629.72 831.44 628.89 831.71 626.46 832.08 623.44 835.968 623.307 839.846 622.973 843.7 622.44 844.072 622.44 844.43 622.297 844.7 622.04 844.858 621.8 844.938 621.517 844.93 621.23 845.39 615.24 843.2 609.42 840.93 603.88ZM833 616.49C833.41 613.64 833.85 610.88 834.29 608.83L834.35 609.01C835.107 611.071 835.742 613.174 836.25 615.31 835.2 615.79 834.113 616.185 833 616.49Z" id="Path_59" fill="url(#linear-gradient)" transform="translate(-330.959 -216.37)"/><path d="M802.37 648.68C802.37 648.68 804.73 669.91 809.84 678.16 810.497 680.353 811.021 682.584 811.41 684.84 811.41 684.84 812.59 699.38 814.16 703.7 815.73 708.02 816.91 719.82 816.91 719.82 816.91 719.82 822.41 726.1 824.38 721 823.143 714.262 822.746 707.396 823.2 700.56 823.2 700.56 823.59 693.88 821.63 689.16 821.192 686.693 821.192 684.167 821.63 681.7 822.41 678.55 818.48 663.23 818.48 663.23L815.34 647.9Z" id="Path_60" fill="#BE6F72" transform="translate(-326.579 -216.37)"/><path d="M827.13 724.93C827.13 724.93 824.77 729.25 811.02 730.82 803.88 731.63 803.83 730.34 805.44 728.9 806.805 727.815 808.279 726.877 809.84 726.1 809.84 726.1 814.95 722.57 815.73 720.21 816.51 717.85 819.27 719.82 819.27 719.82 823.2 725.71 823.99 718.24 824.77 719.03 825.553 720.349 826.161 721.764 826.58 723.24 826.91 724.19 827.13 724.93 827.13 724.93Z" id="Path_61" fill="#FF6F61" transform="translate(-327.527 -216.37)"/><path d="M827.13 724.93C827.13 724.93 824.77 729.25 811.02 730.82 803.88 731.63 803.83 730.34 805.44 728.9 806.56 729.61 808.82 729.9 813.37 728.07 819.92 725.39 824.67 723.84 826.58 723.24 826.91 724.19 827.13 724.93 827.13 724.93Z" id="Path_62" opacity="0.1" transform="translate(-327.527 -216.37)"/><path d="M823.2 700.56C823.2 700.56 823.59 693.88 821.63 689.16 821.192 686.693 821.192 684.167 821.63 681.7 822.41 678.55 818.48 663.23 818.48 663.23L815.34 647.9 812.62 648.06 815.73 663.23C815.73 663.23 819.66 678.55 818.88 681.7 818.442 684.167 818.442 686.693 818.88 689.16 820.88 693.88 820.45 700.56 820.45 700.56 819.996 707.396 820.393 714.262 821.63 721 821.417 721.64 821.021 722.203 820.49 722.62 821.95 723.28 823.49 723.25 824.38 721 823.143 714.262 822.746 707.396 823.2 700.56Z" id="Path_63" opacity="0.1" transform="translate(-327.699 -216.37)"/><path d="M820.64 562.42C818.018 562.415 815.447 563.146 813.22 564.53 807.165 563.132 800.947 566.096 798.22 571.68 794.885 574.834 793.036 579.25 793.13 583.84 793.13 592.2 798.76 598.97 805.7 598.97 810.7 598.97 815.08 595.41 817.09 590.26 818.245 590.566 819.435 590.721 820.63 590.72 828.445 590.72 834.78 584.385 834.78 576.57 834.78 568.755 828.445 562.42 820.63 562.42Z" id="Path_64" fill="#3F3D56" transform="translate(-328.25 -202.467)"/><path d="M832.24 650.65 833.42 653.79C833.42 653.79 834.6 674.62 834.2 676.59 833.8 678.56 835.78 685.59 835.78 685.59 838.321 692.628 839.261 700.143 838.53 707.59L838.92 718.59C838.92 718.59 840.49 722.91 839.71 723.7 838.93 724.49 833 723 833 723 833 723 833.79 714.75 831 709.64 828.21 704.53 826.68 691.56 826.68 691.56 826.68 691.56 822.75 683.7 822.75 680.56 822.75 677.42 816.46 651.87 816.46 651.87Z" id="Path_65" fill="#BE6F72" transform="translate(-332.115 -216.37)"/><path d="M801.58 650.26C801.58 650.26 801.98 636.11 803.58 631.79 804.394 629.771 804.981 627.668 805.33 625.52 805.33 625.52 829.12 629.82 831.09 628.25 831.09 628.25 831.48 633.75 831.88 634.14 832.28 634.53 833.88 644.36 833.45 649.08 833.02 653.8 833.45 653.79 833.45 653.79 833.45 653.79 817.33 656.15 816.94 653.79 816.55 651.43 815.37 651.44 815.37 651.44 815.37 651.44 800.8 651 801.58 650.26Z" id="Path_66" fill="#3F3D56" transform="translate(-328.847 -216.37)"/><g id="Group_7" opacity="0.1" transform="translate(472.739 411.88)"><path d="M814.55 650.26C814.55 650.26 804.61 649.99 801.61 649.45L801.61 650.26C800.83 651.04 815.37 651.44 815.37 651.44 815.568 651.458 815.756 651.535 815.91 651.66 815.38 650.26 814.55 650.26 814.55 650.26Z" id="Path_67" transform="translate(-801.58 -628.25)"/><path d="M831.85 634.14C831.45 633.75 831.06 628.25 831.06 628.25 830.856 628.377 830.628 628.458 830.39 628.49 830.53 630.15 830.8 632.7 831.06 632.96 831.32 633.22 833.06 643.18 832.63 647.9 832.2 652.62 832.63 652.61 832.63 652.61 832.63 652.61 819.88 654.48 816.79 653.23 816.819 653.419 816.859 653.606 816.91 653.79 817.3 656.15 833.42 653.79 833.42 653.79 833.42 653.79 833.02 653.79 833.42 649.08 833.82 644.37 832.24 634.54 831.85 634.14Z" id="Path_68" transform="translate(-801.58 -628.25)"/><path d="M814.55 650.26C814.55 650.26 804.61 649.99 801.61 649.45L801.61 650.26C800.83 651.04 815.37 651.44 815.37 651.44 815.568 651.458 815.756 651.535 815.91 651.66 815.38 650.26 814.55 650.26 814.55 650.26Z" id="Path_69" transform="translate(-801.58 -628.25)"/><path d="M831.85 634.14C831.45 633.75 831.06 628.25 831.06 628.25 830.856 628.377 830.628 628.458 830.39 628.49 830.53 630.15 830.8 632.7 831.06 632.96 831.32 633.22 833.06 643.18 832.63 647.9 832.2 652.62 832.63 652.61 832.63 652.61 832.63 652.61 819.88 654.48 816.79 653.23 816.819 653.419 816.859 653.606 816.91 653.79 817.3 656.15 833.42 653.79 833.42 653.79 833.42 653.79 833.02 653.79 833.42 649.08 833.82 644.37 832.24 634.54 831.85 634.14Z" id="Path_70" transform="translate(-801.58 -628.25)"/></g><path d="M818.9 587.18C819.239 587.937 819.753 588.602 820.4 589.12 820.817 589.43 821.299 589.638 821.81 589.73 820.93 590.24 819.97 590.62 819.09 591.13 817.706 592.06 816.371 593.062 815.09 594.13 813.78 595.183 812.177 595.805 810.5 595.91 811.698 594.295 811.942 592.164 811.14 590.32 810.78 589.726 810.542 589.067 810.44 588.38 810.44 587.25 811.44 586.38 812.37 585.78 813.12 585.27 813.89 584.78 814.67 584.29 815.28 583.91 816.2 583.11 816.97 583.14 817.74 583.17 817.83 583.85 817.97 584.55 818.168 585.462 818.48 586.346 818.9 587.18Z" id="Path_71" fill="#BE6F72" transform="translate(-326.81 -202.761)"/><path d="M818.9 587.18C819.239 587.937 819.753 588.602 820.4 589.12 820.817 589.43 821.299 589.638 821.81 589.73 820.93 590.24 819.97 590.62 819.09 591.13 817.706 592.06 816.371 593.062 815.09 594.13 813.78 595.183 812.177 595.805 810.5 595.91 811.698 594.295 811.942 592.164 811.14 590.32 810.78 589.726 810.542 589.067 810.44 588.38 810.44 587.25 811.44 586.38 812.37 585.78 813.12 585.27 813.89 584.78 814.67 584.29 815.28 583.91 816.2 583.11 816.97 583.14 817.74 583.17 817.83 583.85 817.97 584.55 818.168 585.462 818.48 586.346 818.9 587.18Z" id="Path_72" opacity="0.1" transform="translate(-326.81 -202.761)"/><circle cx="9.04" cy="9.04" r="9.04" id="Ellipse_26" fill="#BE6F72" transform="translate(487.403 388.255)"/><path d="M840.88 729.64C840.88 730.43 839.31 732.39 839.31 732.39 836.117 732.782 832.878 732.377 829.88 731.21 829.09 730.82 830.27 728.46 830.27 728.46L830.36 728.27C830.72 727.344 831.223 726.481 831.85 725.71 832.63 724.93 833.1 721.71 833.1 721.71 835.54 717.71 839.87 723.44 839.87 723.44 839.87 723.44 840.42 726.44 840.71 728.26 840.79 728.717 840.847 729.177 840.88 729.64Z" id="Path_73" fill="#FF6F61" transform="translate(-333.73 -216.37)"/><path d="M840.88 729.64C840.88 730.43 839.31 732.39 839.31 732.39 836.117 732.782 832.878 732.377 829.88 731.21 829.09 730.82 830.27 728.46 830.27 728.46L830.36 728.27C833.038 729.514 835.969 730.116 838.92 730.03L840.71 728.24C840.81 728.91 840.88 729.44 840.88 729.64Z" id="Path_74" opacity="0.1" transform="translate(-333.73 -216.37)"/><circle cx="8.84" cy="8.84" r="8.84" id="Ellipse_27" fill="#BE6F72" transform="translate(476.143 371.426)"/><path d="M802.9 600.14C800.96 601.99 800.64 604.92 800.44 607.59L800.14 611.5C800.032 612.553 800.008 613.613 800.07 614.67 800.07 615.32 800.23 615.98 800.29 616.67 800.35 617.36 800.37 618.23 800.38 619.02L800.38 624.8C800.285 625.993 800.506 627.19 801.02 628.27 801.589 629.353 802.891 629.822 804.02 629.35 804.641 628.871 805.079 628.193 805.26 627.43 806.235 625.085 806.907 622.625 807.26 620.11 807.34 619.24 807.35 618.37 807.43 617.5 807.51 616.63 807.66 615.72 807.79 614.84 808.35 611.16 808.6 607.44 808.85 603.73 808.92 602.63 809.91 598.3 808.47 597.82 807.77 597.59 806.32 598.31 805.65 598.55 804.636 598.889 803.7 599.43 802.9 600.14Z" id="Path_75" fill="#BE6F72" transform="translate(-322.502 -205.633)"/><path d="M802.9 600.14C800.96 601.99 800.64 604.92 800.44 607.59L800.14 611.5C800.032 612.553 800.008 613.613 800.07 614.67 800.07 615.32 800.23 615.98 800.29 616.67 800.35 617.36 800.37 618.23 800.38 619.02L800.38 624.8C800.285 625.993 800.506 627.19 801.02 628.27 801.589 629.353 802.891 629.822 804.02 629.35 804.641 628.871 805.079 628.193 805.26 627.43 806.235 625.085 806.907 622.625 807.26 620.11 807.34 619.24 807.35 618.37 807.43 617.5 807.51 616.63 807.66 615.72 807.79 614.84 808.35 611.16 808.6 607.44 808.85 603.73 808.92 602.63 809.91 598.3 808.47 597.82 807.77 597.59 806.32 598.31 805.65 598.55 804.636 598.889 803.7 599.43 802.9 600.14Z" id="Path_76" opacity="0.1" transform="translate(-322.502 -205.633)"/><path d="M821.23 588.16C821.23 588.16 814.55 593.27 810.62 594.45 810.62 594.45 808.29 597.11 807.89 597.75 807.49 598.39 806.69 605.45 805.89 607.03 805.09 608.61 803.14 612.14 805.89 615.67 805.89 615.67 806.67 619.21 806.28 620.39 805.89 621.57 804.46 625.89 805.76 626.09 807.06 626.29 811 629.03 814.53 628.25 818.06 627.47 831.24 631.25 831.24 631.25 831.24 631.25 833.42 611 835 607.42L831.46 606.24C831.46 606.24 821.64 600.35 827.53 591.31 827.52 591.31 822 590.13 821.23 588.16Z" id="Path_77" fill="#FF6F61" transform="translate(-329.55 -205.579)"/><path d="M796.84 611.83 804.96 617.58C805.171 617.735 805.459 617.735 805.67 617.58L807.87 615.93C808.13 615.707 808.159 615.315 807.936 615.056 807.915 615.032 807.893 615.01 807.87 614.99L801.62 609.44C801.455 609.29 801.22 609.243 801.01 609.32L797 610.76C796.682 610.87 796.512 611.217 796.622 611.536 796.663 611.654 796.739 611.756 796.84 611.83Z" id="Path_78" fill="#3F3D56" transform="translate(-321.823 -204.945)"/><path d="M799.57 629.15C798.996 627.158 798.71 625.093 798.72 623.02L798.6 620.25C798.479 619.175 798.578 618.086 798.89 617.05 799.514 615.611 800.751 614.528 802.26 614.1 803.753 613.686 805.313 613.573 806.85 613.77 807.057 613.771 807.261 613.826 807.44 613.93 807.597 614.075 807.708 614.263 807.76 614.47 808.219 615.366 808.285 616.414 807.94 617.36 807.708 617.741 807.393 618.066 807.02 618.31 805.93 619.09 804.66 619.61 803.63 620.46 803.421 620.602 803.26 620.804 803.17 621.04 803.12 621.247 803.12 621.463 803.17 621.67 803.298 622.22 803.472 622.759 803.69 623.28 803.778 623.542 803.933 623.776 804.14 623.96 804.33 624.12 804.58 624.18 804.78 624.33 805.21 624.68 806.11 625.14 806.06 625.69 805.91 627.69 804.71 629.93 804.24 631.91 803.34 635.78 800.15 630.84 799.57 629.15Z" id="Path_79" fill="#BE6F72" transform="translate(-322.063 -206.239)"/><g id="Group_8" opacity="0.1" transform="translate(481.622 400.889)"><path d="M812.2 628.25 811.98 628.25C812.829 628.415 813.701 628.415 814.55 628.25L814.8 628.25C813.938 628.124 813.062 628.124 812.2 628.25Z" id="Path_80" transform="translate(-811.98 -606.83)"/><path d="M832.83 606.83C831.42 610 829.34 627.17 828.97 630.58 830.35 630.94 831.26 631.2 831.26 631.2 831.26 631.2 833.42 611 835 607.42Z" id="Path_81" transform="translate(-811.98 -606.83)"/></g><path d="M828.42 601.61C828.569 602.408 829.034 603.111 829.71 603.56 830.545 604.26 831.311 605.036 832 605.88 832.988 607.27 833.754 608.805 834.27 610.43 835.02 612.465 835.651 614.542 836.16 616.65 831.16 618.97 825.48 618.86 820.16 620.39 817.869 620.994 815.792 622.223 814.16 623.94 812.513 625.686 811.707 628.062 811.95 630.45 811.958 630.588 811.999 630.722 812.07 630.84 812.246 631.039 812.505 631.143 812.77 631.12 814.099 631.118 815.39 630.675 816.44 629.86 817.478 629.049 818.42 628.123 819.25 627.1 819.765 626.429 820.458 625.917 821.25 625.62 824.14 624.74 827.25 624.79 830.25 624.74 834.737 624.652 839.215 624.298 843.66 623.68 844.252 623.75 844.79 623.327 844.86 622.735 844.87 622.65 844.87 622.565 844.86 622.48 845.3 616.58 843.11 610.82 840.86 605.35 839.96 603.157 839.033 600.973 838.08 598.8 837.295 596.676 836.144 594.707 834.68 592.98 834.124 592.352 833.443 591.848 832.68 591.5 831.82 591.19 830.914 591.021 830 591 828.545 590.804 827.072 590.777 825.61 590.92 825.377 591.656 825.236 592.419 825.19 593.19 825.27 595.89 826.45 598.42 827.61 600.86 827.76 601.23 828.19 601.25 828.42 601.61Z" id="Path_82" fill="#BE6F72" transform="translate(-332.947 -205.622)"/><path d="M812.41 606.67C811.733 607.828 811.388 609.149 811.41 610.49 811.412 611.02 811.497 611.546 811.66 612.05 812.213 613.482 813.387 614.586 814.85 615.05" id="Path_83" stroke="#000000" stroke-width="1" stroke-miterlimit="10" fill="none" opacity="0.1" transform="translate(-325.164 -204.693)"/><path d="M817.5 573.82C817.007 573.818 816.518 573.896 816.05 574.05 814.74 572.05 811.66 570.67 808.05 570.67 803.27 570.67 799.4 573.14 799.4 576.18 799.4 579.22 803.27 581.68 808.05 581.68 809.84 581.699 811.612 581.324 813.24 580.58 814.372 582.922 817.189 583.903 819.53 582.771 821.872 581.638 822.853 578.822 821.721 576.48 820.935 574.853 819.287 573.82 817.48 573.82Z" id="Path_84" fill="#3F3D56" transform="translate(-325.691 -201.547)"/><path d="M817.89 582.07C816.08 582.07 814.431 581.031 813.65 579.399 812.022 580.143 810.25 580.518 808.46 580.499 803.69 580.499 799.82 578.039 799.82 574.999 799.805 574.816 799.805 574.632 799.82 574.449 799.535 574.982 799.384 575.575 799.38 576.179 799.38 579.179 803.25 581.679 808.03 581.679 809.82 581.698 811.592 581.323 813.22 580.579 814.35 582.922 817.166 583.905 819.509 582.775 820.854 582.126 821.812 580.877 822.09 579.409 821.314 581.026 819.683 582.058 817.89 582.069Z" id="Path_85" opacity="0.1" transform="translate(-325.664 -201.646)"/><path d="M798.23 574C800.957 568.416 807.175 565.452 813.23 566.85 819.875 562.747 828.587 564.808 832.69 571.453 833.86 573.347 834.565 575.491 834.75 577.71L834.75 576.53C834.733 568.721 828.389 562.404 820.579 562.421 817.965 562.426 815.404 563.156 813.18 564.53 807.125 563.132 800.907 566.096 798.18 571.68 794.845 574.834 792.996 579.25 793.09 583.84L793.09 585.02C793.286 580.813 795.133 576.854 798.23 574Z" id="Path_86" opacity="0.1" transform="translate(-328.237 -201.452)"/><path d="M888.39 577C891 572.17 888.04 566.24 884.63 561.93 881.22 557.62 877.08 553.14 877.17 547.64 877.29 539.75 885.67 535.09 892.37 530.9 897.337 527.787 901.916 524.095 906.01 519.9 907.73 518.293 909.152 516.393 910.21 514.29 911.59 511.2 911.55 507.69 911.47 504.29 911.177 493.023 910.62 481.77 909.8 470.53" id="Path_87" stroke="#3F3D56" stroke-width="4" stroke-miterlimit="10" fill="none" transform="translate(-357.455 -197.857)"/><path d="M922.52 469.93C922.326 465.743 920.012 461.943 916.38 459.85L913.62 465.3 913.7 458.7C912.388 458.308 911.018 458.143 909.65 458.21 902.859 458.527 897.61 464.289 897.927 471.08 898.244 477.871 904.006 483.12 910.797 482.803 917.588 482.487 922.837 476.724 922.52 469.933 922.52 469.932 922.52 469.931 922.52 469.93Z" id="Path_88" fill="#F3F2F8" transform="translate(-362.295 -191.354)"/><path d="M900.57 553.26C897.461 559.306 890.04 561.688 883.994 558.579 877.947 555.47 875.566 548.049 878.674 542.003 881.783 535.956 889.205 533.575 895.251 536.684 897.982 538.088 900.09 540.462 901.16 543.34L893.47 549.6 901.93 547.6C901.938 549.569 901.472 551.51 900.57 553.26Z" id="Path_89" fill="#F3F2F8" transform="translate(-354.738 -198.933)"/><path d="M894.49 529.35C887.699 529.677 881.929 524.436 881.603 517.645 881.327 511.911 885.052 506.748 890.58 505.2L890.52 510.27 893.31 504.76 893.31 504.76C900.103 504.442 905.867 509.692 906.185 516.485 906.503 523.278 901.253 529.042 894.46 529.36Z" id="Path_90" fill="#F3F2F8" transform="translate(-356.303 -195.928)"/><path d="M924.37 509.47C917.58 509.816 911.796 504.592 911.45 497.802 911.104 491.012 916.328 485.228 923.118 484.882 925.457 484.763 927.783 485.314 929.82 486.47L927.64 492.47 932.12 488.17C934.531 490.359 935.97 493.417 936.12 496.67 936.18 497.809 936.076 498.951 935.81 500.06 934.522 505.397 929.855 509.235 924.37 509.47Z" id="Path_91" fill="#F3F2F8" transform="translate(-367.279 -193.975)"/><path d="M920.87 473.21C918.03 473.53 915.26 474.41 912.41 474.59 909.56 474.77 906.41 474.08 904.62 471.86 903.784 470.573 903.026 469.238 902.35 467.86 901.57 466.649 900.506 465.647 899.25 464.94 896.155 470.993 898.553 478.409 904.606 481.504 910.66 484.6 918.076 482.201 921.171 476.148 921.662 475.187 922.025 474.166 922.25 473.11 921.79 473.13 921.33 473.16 920.87 473.21Z" id="Path_92" fill="#F3F2F8" opacity="0.1" transform="translate(-362.212 -191.658)"/><path d="M924.37 509.47C917.573 509.783 911.81 504.526 911.497 497.729 911.405 495.724 911.804 493.726 912.66 491.91 913.639 492.565 914.481 493.404 915.14 494.38 915.871 495.784 916.686 497.144 917.58 498.45 919.49 500.71 922.77 501.45 925.74 501.31 928.71 501.17 931.58 500.31 934.54 500.06 934.95 500.06 935.37 499.99 935.78 499.98 934.525 505.338 929.867 509.213 924.37 509.47Z" id="Path_93" fill="#F3F2F8" opacity="0.1" transform="translate(-367.178 -194.257)"/><path d="M894.49 529.35C887.705 529.682 881.936 524.451 881.604 517.666 881.508 515.719 881.877 513.777 882.68 512 883.689 512.671 884.57 513.518 885.28 514.5 886.28 515.85 886.83 517.41 887.95 518.65 890.03 520.97 893.52 521.78 896.67 521.71 899.82 521.64 902.67 520.89 905.67 520.66 904.149 525.625 899.676 529.101 894.49 529.35Z" id="Path_94" fill="#F3F2F8" opacity="0.1" transform="translate(-356.154 -196.194)"/><path d="M900.57 553.26C897.362 559.261 889.898 561.525 883.897 558.318 878.497 555.431 876.036 549.017 878.12 543.26 879.136 543.923 880.046 544.735 880.82 545.67 882 547.1 882.77 548.67 884.12 550.05 886.64 552.52 890.7 553.53 894.32 553.63 896.409 553.628 898.496 553.504 900.57 553.26Z" id="Path_95" fill="#F3F2F8" opacity="0.1" transform="translate(-354.36 -199.17)"/><path d="M1047.39 729C1050 724.17 1047.04 718.24 1043.63 713.93 1040.22 709.62 1036.08 705.14 1036.17 699.64 1036.29 691.75 1044.67 687.09 1051.37 682.9 1056.34 679.787 1060.92 676.095 1065.01 671.9 1066.73 670.293 1068.15 668.393 1069.21 666.29 1070.59 663.2 1070.55 659.69 1070.47 656.29 1070.18 645.023 1069.63 633.77 1068.8 622.53" id="Path_96" stroke="#3F3D56" stroke-width="4" stroke-miterlimit="10" fill="none" transform="translate(-445 -216.37)"/><path d="M1081.52 621.93C1081.33 617.743 1079.01 613.943 1075.38 611.85L1072.62 617.3 1072.7 610.7C1071.4 610.314 1070.05 610.148 1068.7 610.21 1061.91 610.527 1056.66 616.289 1056.98 623.08 1057.29 629.871 1063.06 635.12 1069.85 634.803 1076.64 634.487 1081.89 628.724 1081.57 621.933 1081.57 621.932 1081.57 621.931 1081.57 621.93Z" id="Path_97" fill="#FFFFFF" transform="translate(-445 -206.292)"/><path d="M1059.57 705.26C1056.46 711.306 1049.04 713.688 1042.99 710.579 1036.95 707.47 1034.57 700.049 1037.67 694.003 1040.78 687.956 1048.2 685.575 1054.25 688.684 1056.98 690.088 1059.09 692.462 1060.16 695.34L1052.47 701.6 1060.93 699.6C1060.94 701.569 1060.47 703.51 1059.57 705.26Z" id="Path_98" fill="#FFFFFF" transform="translate(-445 -216.37)"/><path d="M1053.49 681.35C1046.7 681.677 1040.93 676.436 1040.6 669.645 1040.33 663.911 1044.05 658.748 1049.58 657.2L1049.52 662.27 1052.31 656.76 1052.31 656.76C1059.1 656.442 1064.87 661.692 1065.19 668.485 1065.5 675.278 1060.25 681.042 1053.46 681.36Z" id="Path_99" fill="#FFFFFF" transform="translate(-445 -216.37)"/><path d="M1083.37 661.47C1076.58 661.816 1070.8 656.592 1070.45 649.802 1070.1 643.012 1075.33 637.228 1082.12 636.882 1084.46 636.763 1086.78 637.314 1088.82 638.47L1086.64 644.47 1091.12 640.17C1093.53 642.359 1094.97 645.417 1095.12 648.67 1095.18 649.809 1095.08 650.951 1094.81 652.06 1093.52 657.397 1088.85 661.235 1083.37 661.47Z" id="Path_100" fill="#FFFFFF" transform="translate(-445 -216.37)"/><path d="M1079.87 625.21C1077.03 625.53 1074.26 626.41 1071.41 626.59 1068.56 626.77 1065.41 626.08 1063.62 623.86 1062.78 622.573 1062.03 621.238 1061.35 619.86 1060.57 618.649 1059.51 617.646 1058.25 616.94 1055.15 622.993 1057.55 630.409 1063.61 633.505 1069.66 636.6 1077.08 634.201 1080.17 628.148 1080.66 627.187 1081.03 626.166 1081.25 625.11 1080.79 625.13 1080.33 625.16 1079.87 625.21Z" id="Path_101" opacity="0.1" transform="translate(-445 -206.416)"/><path d="M1083.37 661.47C1076.57 661.783 1070.81 656.526 1070.5 649.729 1070.4 647.724 1070.8 645.726 1071.66 643.91 1072.64 644.565 1073.48 645.404 1074.14 646.38 1074.87 647.784 1075.69 649.143 1076.58 650.45 1078.49 652.71 1081.77 653.45 1084.74 653.31 1087.71 653.17 1090.58 652.31 1093.54 652.06 1093.95 652.06 1094.37 651.99 1094.78 651.98 1093.53 657.338 1088.87 661.213 1083.37 661.47Z" id="Path_102" opacity="0.1" transform="translate(-445 -216.37)"/><path d="M1053.49 681.35C1046.7 681.682 1040.94 676.451 1040.6 669.666 1040.51 667.719 1040.88 665.777 1041.68 664 1042.69 664.671 1043.57 665.518 1044.28 666.5 1045.28 667.85 1045.83 669.41 1046.95 670.65 1049.03 672.97 1052.52 673.78 1055.67 673.71 1058.82 673.64 1061.67 672.89 1064.67 672.66 1063.15 677.625 1058.68 681.101 1053.49 681.35Z" id="Path_103" opacity="0.1" transform="translate(-445 -216.37)"/><path d="M1059.57 705.26C1056.36 711.261 1048.9 713.525 1042.9 710.318 1037.5 707.431 1035.04 701.017 1037.12 695.26 1038.14 695.923 1039.05 696.735 1039.82 697.67 1041 699.1 1041.82 700.67 1043.12 702.05 1045.64 704.52 1049.7 705.53 1053.32 705.63 1055.41 705.628 1057.5 705.504 1059.57 705.26Z" id="Path_104" fill="#FFFFFF" opacity="0.1" transform="translate(-445 -216.37)"/><path d="M530 587.91C530.026 584.799 528.575 581.861 526.09 579.99 526.059 574.392 522.002 569.63 516.48 568.71 515.639 564.699 512.723 561.44 508.83 560.16L508.83 560.16C508.366 560.015 507.891 559.904 507.41 559.83L505.72 559.83C500.234 559.957 495.638 564.021 494.84 569.45 491.33 568.64 488.12 569.69 487.53 571.91 487.382 572.5 487.417 573.12 487.63 573.69 488.23 575.41 490.18 577.06 492.79 577.87L493.13 577.97 493.64 578.1 493.75 578.1C493.193 579.285 492.906 580.58 492.91 581.89 492.893 585.167 494.712 588.179 497.62 589.69L497.39 589.83C497.065 590.126 496.806 590.487 496.63 590.89 495.999 592.006 495.505 593.195 495.16 594.43 494.91 595.49 494.87 596.59 494.56 597.64 493.98 599.57 492.5 601.2 492.33 603.21 492.25 604.11 492.4 605.21 491.76 605.79 491.603 605.927 491.432 606.047 491.25 606.15 490.807 606.463 490.43 606.861 490.14 607.32 489.948 607.736 489.684 608.116 489.36 608.44 488.78 608.87 487.83 608.83 487.55 609.5 487.27 610.17 488 610.96 487.83 611.69 487.66 612.42 487.04 612.56 486.59 612.97 486.067 613.533 485.698 614.222 485.52 614.97 483.604 615.336 481.625 614.83 480.12 613.59 480.375 614.236 480.563 614.906 480.68 615.59 479.81 614.926 478.823 614.431 477.77 614.13 476.585 613.591 475.529 612.807 474.67 611.83L476.33 611.6 469 600.41 466.83 599.96 468.77 603.69C468.442 603.84 468.199 604.13 468.11 604.48 468.007 604.895 467.983 605.326 468.04 605.75 468.139 606.76 468.307 607.762 468.54 608.75L469.1 611.37C469.15 611.61 469.21 611.86 469.28 612.1 468.548 612.064 467.816 612.145 467.11 612.34 465.656 611.799 464.142 611.44 462.6 611.27 462.27 611.203 461.93 611.203 461.6 611.27 461.226 611.447 460.901 611.711 460.65 612.04 459.387 613.505 458.266 615.085 457.3 616.76 453.3 623.62 448.09 629.61 443.16 635.81 439.76 637.19 436.33 638.5 432.9 639.81L425.52 642.63C424.081 643.283 422.52 643.624 420.94 643.63 420.24 643.63 419.37 643.48 418.94 644.08 418.747 644.392 418.596 644.729 418.49 645.08L417.73 645.16 417.73 645.16C417.38 643.959 416.776 642.847 415.96 641.9 415.594 641.963 415.284 642.202 415.13 642.54 414.95 642.87 414.84 643.23 414.63 643.54 414.24 644.12 413.55 644.4 413.06 644.89 412.57 645.38 412.26 646.14 411.72 646.64 410.984 647.185 410.119 647.529 409.21 647.64 407.84 647.96 406.518 648.461 405.28 649.13 404.827 649.414 404.34 649.639 403.83 649.8 403.267 649.91 402.69 649.93 402.12 649.86L398.22 649.57C397.87 649.526 397.515 649.543 397.17 649.62 396.367 649.947 395.866 650.755 395.93 651.62 396.032 652.476 396.48 653.253 397.17 653.77 397.845 654.268 398.594 654.656 399.39 654.92 402.765 656.234 406.244 657.264 409.79 658L409.79 658.79C412.271 660.041 415.011 660.692 417.79 660.69 417.996 660.704 418.202 660.666 418.39 660.58 418.645 660.389 418.823 660.112 418.89 659.8 419.719 657.32 420.243 654.747 420.45 652.14L420.45 652.14C420.938 652.107 421.416 651.985 421.86 651.78 423.2 651.41 424.54 652.33 425.93 652.48 427.64 652.67 429.22 651.67 430.84 651.06L431.54 650.83C431.079 651.423 430.533 651.945 429.92 652.38 429.25 652.86 428.5 653.22 427.85 653.72 427.3 654.218 426.711 654.673 426.09 655.08 425.652 655.283 425.201 655.456 424.74 655.6 424.058 655.853 423.41 656.189 422.81 656.6 422.278 656.917 421.829 657.356 421.5 657.88 421.166 658.424 421.125 659.099 421.39 659.68 421.67 660.152 422.14 660.48 422.68 660.58 423.207 660.66 423.743 660.66 424.27 660.58 426.39 660.42 428.5 660.23 430.61 660.04 431.502 659.984 432.388 659.857 433.26 659.66 433.72 659.55 434.18 659.4 434.64 659.27 435.429 659.071 436.237 658.95 437.05 658.91 437.286 658.892 437.523 658.916 437.75 658.98 438.24 659.14 438.59 659.64 439.09 659.74 439.429 659.783 439.773 659.738 440.09 659.61 441.631 659.278 443.203 659.11 444.78 659.11 445.49 659.197 446.189 658.885 446.6 658.3 446.92 657.66 446.34 656.63 446.08 655.78 445.947 655.236 445.873 654.68 445.86 654.12 445.739 652.743 445.345 651.403 444.7 650.18 444.352 649.61 444.061 649.007 443.83 648.38 446.854 647.231 449.747 645.763 452.46 644 453.946 642.924 455.612 642.121 457.38 641.63 459.468 641.381 461.585 641.628 463.56 642.35 468.368 643.743 473.098 645.392 477.73 647.29 479.94 648.2 482.14 649.16 484.42 649.85 485.085 650.742 485.889 651.522 486.8 652.16 488.375 653.046 490.144 653.53 491.95 653.57 494.36 653.79 496.78 653.88 499.2 653.84 501.053 653.92 502.899 653.578 504.6 652.84 505.006 652.637 505.385 652.385 505.73 652.09 507.052 652.202 508.356 651.722 509.29 650.78 510.601 649.656 511.545 648.166 512 646.5 512.59 644.22 512.14 641.5 513.54 639.68 513.91 639.18 514.4 638.78 514.77 638.28 515.218 637.595 515.442 636.788 515.41 635.97 515.426 635.938 515.447 635.908 515.47 635.88 515.777 635.145 515.979 634.371 516.07 633.58 516.242 632.958 516.459 632.35 516.72 631.76 517.431 629.996 518.052 628.197 518.58 626.37 518.941 625.155 519.228 623.919 519.44 622.67 519.59 621.67 519.68 620.67 519.76 619.67 519.866 618.094 520.172 616.539 520.67 615.04 521.922 611.473 522.63 607.738 522.77 603.96L522.77 603.74C526.589 603.301 529.442 600.023 529.35 596.18 529.351 595.067 529.115 593.966 528.66 592.95 529.545 591.418 530.007 589.679 530 587.91ZM494.22 631.38C494.33 631.77 494.46 632.15 494.59 632.53 494 631.96 493.43 631.37 492.84 630.79 493.07 630.87 493.31 630.94 493.53 631.03 493.761 631.124 493.982 631.242 494.19 631.38ZM491.39 629.46C487.93 626.46 483.93 624.13 480.39 621.22 482.32 622.17 484.2 623.28 486.06 624.34 488.267 625.6 490.503 626.81 492.77 627.97 492.398 628.551 491.919 629.056 491.36 629.46ZM492.86 621.9 493.03 621.73 493.03 622.92 492.1 622.6C492.357 622.382 492.601 622.148 492.83 621.9ZM462.43 630C463.849 628.393 465.084 626.632 466.11 624.75 467.48 627.14 469.71 628.87 471.6 630.88 468.55 630.49 465.49 630.16 462.43 630Z" id="Path_105" fill="url(#linear-gradient-2)" transform="translate(-192.512 -216.37)"/><path d="M415.35 438.25 417.53 438.69 424.96 449.68 421.69 450.12Z" id="Path_106" fill="#2F2E41" transform="translate(-150.252 -41.77)"/><path d="M414.49 645.46C415.081 647.399 415.81 649.294 416.67 651.13 419.132 650.61 421.555 649.918 423.92 649.06 423.454 648.366 422.95 647.699 422.41 647.06 421.823 646.421 421.129 645.89 420.36 645.49 419.54 645.305 418.69 645.305 417.87 645.49 416.75 645.46 415.62 645.48 414.49 645.46Z" id="Path_107" fill="#FBBEBE" transform="translate(-183.109 -216.37)"/><path d="M420.37 648.39C419.173 647.854 418.269 646.825 417.89 645.57 417.509 644.324 416.864 643.175 416 642.2 415.63 642.251 415.312 642.489 415.16 642.83 414.98 643.15 414.87 643.51 414.67 643.83 414.27 644.4 413.57 644.68 413.07 645.16 412.57 645.64 412.27 646.39 411.73 646.88 410.988 647.427 410.116 647.772 409.2 647.88 407.808 648.194 406.464 648.688 405.2 649.35 404.737 649.627 404.244 649.848 403.73 650.01 403.16 650.095 402.58 650.095 402.01 650.01L398.07 649.73C397.739 649.675 397.401 649.675 397.07 649.73 396.242 650.029 395.726 650.855 395.82 651.73 395.914 652.583 396.369 653.355 397.07 653.85 397.754 654.341 398.51 654.726 399.31 654.99 402.74 656.282 406.273 657.285 409.87 657.99L409.87 658.77C412.375 660 415.129 660.639 417.92 660.64 418.125 660.652 418.33 660.618 418.52 660.54 418.775 660.349 418.953 660.072 419.02 659.76 419.968 656.998 420.523 654.117 420.67 651.2 420.734 650.459 420.677 649.712 420.5 648.99 420.28 648.28 421.02 648.58 420.34 648.3" id="Path_108" fill="#2F2E41" transform="translate(-178.146 -216.37)"/><path d="M495.93 633.54C484.25 634.24 472.71 630.82 461.01 630.46 459.558 630.364 458.099 630.455 456.67 630.73 455.182 631.134 453.74 631.693 452.37 632.4 446.1 635.32 439.61 637.74 433.13 640.15L425.68 642.92C424.231 643.574 422.66 643.915 421.07 643.92 420.36 643.92 419.49 643.77 419.07 644.36 417.86 646.16 418.43 648.79 419.23 650.81 419.49 651.46 419.93 652.17 420.63 652.24 421.121 652.207 421.602 652.085 422.05 651.88 423.4 651.52 424.75 652.43 426.15 652.58 427.87 652.76 429.47 651.78 431.1 651.18 433.8 650.18 436.74 650.18 439.58 649.74 444.33 648.95 448.74 646.74 452.86 644.23 454.358 643.162 456.034 642.37 457.81 641.89 459.914 641.642 462.046 641.885 464.04 642.6 468.886 643.967 473.656 645.59 478.33 647.46 480.76 648.518 483.251 649.429 485.79 650.19 491.332 651.64 497.191 651.289 502.52 649.19 504.39 648.45 506.42 647.19 506.52 645.13 506.59 643.98 505.69 642.97 505.1 641.98 504.72 641.35 504.33 640.72 503.92 640.11 501.92 637.21 499.48 633.33 495.93 633.54Z" id="Path_109" fill="#2F2E41" transform="translate(-194.863 -216.37)"/><path d="M495.93 633.54C484.25 634.24 472.71 630.82 461.01 630.46 459.558 630.364 458.099 630.455 456.67 630.73 455.182 631.134 453.74 631.693 452.37 632.4 446.1 635.32 439.61 637.74 433.13 640.15L425.68 642.92C424.231 643.574 422.66 643.915 421.07 643.92 420.36 643.92 419.49 643.77 419.07 644.36 417.86 646.16 418.43 648.79 419.23 650.81 419.49 651.46 419.93 652.17 420.63 652.24 421.121 652.207 421.602 652.085 422.05 651.88 423.4 651.52 424.75 652.43 426.15 652.58 427.87 652.76 429.47 651.78 431.1 651.18 433.8 650.18 436.74 650.18 439.58 649.74 444.33 648.95 448.74 646.74 452.86 644.23 454.358 643.162 456.034 642.37 457.81 641.89 459.914 641.642 462.046 641.885 464.04 642.6 468.886 643.967 473.656 645.59 478.33 647.46 480.76 648.518 483.251 649.429 485.79 650.19 491.332 651.64 497.191 651.289 502.52 649.19 504.39 648.45 506.42 647.19 506.52 645.13 506.59 643.98 505.69 642.97 505.1 641.98 504.72 641.35 504.33 640.72 503.92 640.11 501.92 637.21 499.48 633.33 495.93 633.54Z" id="Path_110" opacity="0.1" transform="translate(-194.863 -216.37)"/><path d="M436.92 646C438.747 646.62 440.59 647.193 442.45 647.72 443.45 646.01 445.45 644.82 445.88 642.86 445.905 642.775 445.905 642.685 445.88 642.6 445.831 642.517 445.758 642.451 445.67 642.41 444.333 641.676 442.852 641.242 441.33 641.14 440.13 641.07 439.58 642.32 439.04 643.2 438.83 643.59 437.41 646.19 436.92 646Z" id="Path_111" fill="#FBBEBE" transform="translate(-191.163 -216.37)"/><path d="M439.48 644.78C438.375 644.593 437.399 643.951 436.79 643.01 436.54 642.56 436.26 641.95 435.74 642.01 435.22 642.07 435.05 642.61 434.94 643.08 434.594 644.852 434.088 646.589 433.43 648.27 432.77 649.96 431.651 651.432 430.2 652.52 429.52 652.99 428.77 653.34 428.1 653.84 427.545 654.331 426.954 654.779 426.33 655.18 425.889 655.378 425.434 655.545 424.97 655.68 424.287 655.937 423.636 656.273 423.03 656.68 422.491 656.99 422.034 657.425 421.7 657.95 421.364 658.483 421.326 659.152 421.6 659.72 421.883 660.186 422.353 660.506 422.89 660.6 423.424 660.68 423.966 660.68 424.5 660.6 426.63 660.45 428.76 660.26 430.89 660.07 431.788 660.012 432.68 659.888 433.56 659.7L434.95 659.32C435.744 659.11 436.559 658.989 437.38 658.96 437.619 658.938 437.86 658.962 438.09 659.03 438.58 659.19 438.93 659.68 439.44 659.78 439.779 659.813 440.121 659.768 440.44 659.65 441.994 659.317 443.58 659.153 445.17 659.16 445.882 659.243 446.584 658.937 447.01 658.36 447.41 657.58 446.75 656.71 446.48 655.87 446.351 655.336 446.277 654.789 446.26 654.24 446.141 652.88 445.742 651.559 445.09 650.36 444.55 649.36 443.81 648.26 444.19 647.2 444.379 646.863 444.501 646.493 444.55 646.11 444.4 644.39 440.46 645 439.48 644.78Z" id="Path_112" fill="#2F2E41" transform="translate(-187.648 -216.37)"/><path d="M478.42 614.8C476.347 613.892 474.686 612.245 473.76 610.18 473.57 609.74 473.41 609.27 473.22 608.83 472.61 607.34 471.658 606.014 470.44 604.96 470.18 604.685 469.818 604.529 469.44 604.53 469.062 604.644 468.775 604.954 468.69 605.34 468.578 605.747 468.551 606.172 468.61 606.59 468.712 607.573 468.879 608.549 469.11 609.51L469.68 612.09C469.756 612.485 469.873 612.87 470.03 613.24 470.274 613.672 470.596 614.056 470.98 614.37 471.5 614.85 472.03 615.31 472.56 615.77 472.866 616.037 473.202 616.268 473.56 616.46 474.119 616.727 474.716 616.902 475.33 616.98 477.716 617.291 479.993 618.169 481.97 619.54 481.97 619.54 481.97 617.81 481.97 617.62 481.945 617.117 481.771 616.634 481.47 616.23 480.554 615.563 479.519 615.077 478.42 614.8Z" id="Path_113" fill="#FBBEBE" transform="translate(-203.223 -204.989)"/><path d="M478.42 614.8C476.347 613.892 474.686 612.245 473.76 610.18 473.57 609.74 473.41 609.27 473.22 608.83 472.61 607.34 471.658 606.014 470.44 604.96 470.18 604.685 469.818 604.529 469.44 604.53 469.062 604.644 468.775 604.954 468.69 605.34 468.578 605.747 468.551 606.172 468.61 606.59 468.712 607.573 468.879 608.549 469.11 609.51L469.68 612.09C469.756 612.485 469.873 612.87 470.03 613.24 470.274 613.672 470.596 614.056 470.98 614.37 471.5 614.85 472.03 615.31 472.56 615.77 472.866 616.037 473.202 616.268 473.56 616.46 474.119 616.727 474.716 616.902 475.33 616.98 477.716 617.291 479.993 618.169 481.97 619.54 481.97 619.54 481.97 617.81 481.97 617.62 481.945 617.117 481.771 616.634 481.47 616.23 480.554 615.563 479.519 615.077 478.42 614.8Z" id="Path_114" opacity="0.1" transform="translate(-203.223 -204.989)"/><ellipse cx="2.84" cy="2.86" rx="2.84" ry="2.86" id="Ellipse_28" fill="#2F2E41" transform="translate(286.111 386.491)"/><path d="M500.44 590.48C499.68 590.298 498.879 590.412 498.2 590.8 497.872 591.092 497.61 591.45 497.43 591.85 496.794 592.944 496.297 594.113 495.95 595.33 495.7 596.33 495.66 597.46 495.34 598.49 494.76 600.39 493.27 602 493.1 603.98 493.02 604.87 493.17 605.91 492.52 606.51 492.361 606.648 492.19 606.771 492.01 606.88 491.56 607.18 491.178 607.572 490.89 608.03 490.694 608.438 490.427 608.807 490.1 609.12 489.52 609.55 488.56 609.51 488.28 610.12 488 610.73 488.73 611.56 488.56 612.28 488.39 613 487.76 613.14 487.31 613.54 486.78 614.1 486.407 614.79 486.23 615.54 484.306 615.911 482.317 615.417 480.79 614.19 481.45 616.194 481.738 618.302 481.64 620.41 481.741 621.091 481.56 621.784 481.14 622.33 483.396 622.498 485.63 622.886 487.81 623.49 488.754 623.805 489.776 623.805 490.72 623.49 491.226 623.219 491.679 622.86 492.06 622.43 493.26 621.21 494.52 619.88 494.81 618.19 494.882 617.235 494.898 616.277 494.86 615.32 494.974 614.133 495.219 612.963 495.59 611.83 496.223 609.479 496.648 607.076 496.86 604.65 496.99 603.15 498.29 601.95 498.97 600.65 500.25 598.12 501.57 595.49 501.66 592.65 501.7 591.73 501.38 590.58 500.44 590.48Z" id="Path_115" fill="#2F2E41" transform="translate(-208.739 -205.022)"/><path d="M500.44 590.48C499.68 590.298 498.879 590.412 498.2 590.8 497.872 591.092 497.61 591.45 497.43 591.85 496.794 592.944 496.297 594.113 495.95 595.33 495.7 596.33 495.66 597.46 495.34 598.49 494.76 600.39 493.27 602 493.1 603.98 493.02 604.87 493.17 605.91 492.52 606.51 492.361 606.648 492.19 606.771 492.01 606.88 491.56 607.18 491.178 607.572 490.89 608.03 490.694 608.438 490.427 608.807 490.1 609.12 489.52 609.55 488.56 609.51 488.28 610.12 488 610.73 488.73 611.56 488.56 612.28 488.39 613 487.76 613.14 487.31 613.54 486.78 614.1 486.407 614.79 486.23 615.54 484.306 615.911 482.317 615.417 480.79 614.19 481.45 616.194 481.738 618.302 481.64 620.41 481.741 621.091 481.56 621.784 481.14 622.33 483.396 622.498 485.63 622.886 487.81 623.49 488.754 623.805 489.776 623.805 490.72 623.49 491.226 623.219 491.679 622.86 492.06 622.43 493.26 621.21 494.52 619.88 494.81 618.19 494.882 617.235 494.898 616.277 494.86 615.32 494.974 614.133 495.219 612.963 495.59 611.83 496.223 609.479 496.648 607.076 496.86 604.65 496.99 603.15 498.29 601.95 498.97 600.65 500.25 598.12 501.57 595.49 501.66 592.65 501.7 591.73 501.38 590.58 500.44 590.48Z" id="Path_116" opacity="0.1" transform="translate(-208.739 -205.022)"/><path d="M497.78 636C495.35 634.84 493.57 632.69 491.6 630.84 487.85 627.31 483.26 624.84 479.31 621.51 476.69 619.32 474.31 616.77 471.48 614.93 468.945 613.323 466.074 612.32 463.09 612 462.761 611.924 462.419 611.924 462.09 612 461.712 612.161 461.384 612.42 461.14 612.75 459.865 614.189 458.729 615.746 457.75 617.4 452.75 625.9 445.64 633.04 439.75 640.94 439.615 641.104 439.516 641.295 439.46 641.5 439.435 641.806 439.512 642.112 439.68 642.37L440.88 644.71C441.55 646.03 442.63 647.56 444.07 647.3 444.718 647.112 445.299 646.741 445.74 646.23L451.12 641.08 456.76 635.69C460.06 632.54 463.42 629.31 465.58 625.27 467.26 628.19 470.25 630.1 472.29 632.77 473.07 633.77 473.71 634.9 474.41 635.98 475.52 637.7 476.79 639.32 478.05 640.98L484.52 649.23C485.34 650.395 486.355 651.41 487.52 652.23 489.115 653.098 490.894 653.575 492.71 653.62 495.14 653.837 497.58 653.923 500.02 653.88 501.888 653.955 503.75 653.614 505.47 652.88 507.22 652.111 508.369 650.401 508.42 648.49 508.32 647.521 508.002 646.588 507.49 645.76 505.15 641.59 502.13 638.07 497.78 636Z" id="Path_117" fill="#2F2E41" transform="translate(-200.262 -216.37)"/><ellipse cx="2.19" cy="2.2" rx="2.19" ry="2.2" id="Ellipse_29" fill="#E8E8F0" transform="translate(287.839 388.975)"/><path d="M503.47 592.53C503.959 593.512 504.045 594.646 503.71 595.69 503.365 596.716 502.891 597.693 502.3 598.6 501.792 599.534 501.178 600.406 500.47 601.2 503.85 601.36 507.12 600.04 510.09 598.44 512.49 597.15 514.88 595.56 516.16 593.15 515.388 593.334 514.573 593.181 513.92 592.73 513.275 592.286 512.699 591.751 512.21 591.14L510.52 589.24C510.137 588.822 509.801 588.362 509.52 587.87 509.149 587.196 508.992 586.425 509.07 585.66 508.396 586.363 507.645 586.987 506.83 587.52 505.62 588.31 504.29 588.88 503.07 589.66 502.65 589.94 501.69 590.38 501.94 590.94 502.19 591.5 503.13 591.93 503.47 592.53Z" id="Path_118" fill="#FBBEBE" transform="translate(-215.146 -203.206)"/><path d="M503.47 592.53C503.959 593.512 504.045 594.646 503.71 595.69 503.365 596.716 502.891 597.693 502.3 598.6 501.792 599.534 501.178 600.406 500.47 601.2 503.85 601.36 507.12 600.04 510.09 598.44 512.49 597.15 514.88 595.56 516.16 593.15 515.388 593.334 514.573 593.181 513.92 592.73 513.275 592.286 512.699 591.751 512.21 591.14L510.52 589.24C510.137 588.822 509.801 588.362 509.52 587.87 509.149 587.196 508.992 586.425 509.07 585.66 508.396 586.363 507.645 586.987 506.83 587.52 505.62 588.31 504.29 588.88 503.07 589.66 502.65 589.94 501.69 590.38 501.94 590.94 502.19 591.5 503.13 591.93 503.47 592.53Z" id="Path_119" opacity="0.1" transform="translate(-215.146 -203.206)"/><path d="M503.51 592.86C502.808 593.848 502.808 595.172 503.51 596.16 503.61 596.28 503.97 597.03 504.12 597.04 504.269 597.028 504.406 596.955 504.5 596.84 505.269 596.038 505.984 595.186 506.64 594.29 507.31 593.396 508.273 592.766 509.36 592.51 510.707 592.458 512.031 592.872 513.11 593.68 513.612 593.909 514.053 594.251 514.4 594.68 514.641 595.121 514.785 595.609 514.82 596.11 515.147 599.128 515.274 602.165 515.2 605.2 515.257 607.392 515.113 609.584 514.77 611.75 514.55 612.86 514.23 613.95 514.08 615.08 513.963 616.075 513.916 617.078 513.94 618.08L513.94 622.26C513.913 623.027 513.967 623.794 514.1 624.55 514.3 625.46 514.73 626.31 515.02 627.2 515.319 628.222 515.523 629.27 515.63 630.33L516.2 634.65C516.38 636.01 516.52 637.5 515.69 638.65 515.32 639.14 514.83 639.54 514.45 640.03 513.04 641.87 513.45 644.5 512.9 646.75 512.437 648.397 511.481 649.862 510.16 650.95 509.207 651.893 507.885 652.365 506.55 652.24 504.79 651.91 503.74 650.08 503.26 648.35 502.78 646.62 502.61 644.74 501.57 643.28 500.616 642.175 499.487 641.233 498.23 640.49 496.958 639.736 496.023 638.523 495.62 637.1 495.51 636.47 495.62 635.82 495.51 635.18 495.319 633.54 494.25 632.133 492.72 631.51 491.82 631.16 490.72 631.03 490.2 630.21 491.487 629.404 492.426 628.144 492.83 626.68 493.228 625.226 493.443 623.727 493.47 622.22L493.77 617.22C493.91 614.97 493.97 612.75 494.96 610.73 495.4 609.83 495.96 608.98 496.41 608.09 497.02 606.839 497.538 605.546 497.96 604.22 498.68 602.16 499.4 600.1 500.04 598.02 500.29 597.01 500.673 596.038 501.18 595.13 501.72 594.19 502.5 593.06 503.51 592.86Z" id="Path_120" fill="#E8E8F0" transform="translate(-212.967 -216.37)"/><path d="M492.36 625.5 493.69 625.5 493.97 623.5C494.006 623.099 494.101 622.704 494.25 622.33 494.47 621.933 494.728 621.557 495.02 621.21 496.32 619.36 496.23 616.91 496.55 614.66 497.13 611.687 498.112 608.807 499.47 606.1L502.05 600.35C502.285 599.88 502.472 599.387 502.61 598.88 502.718 598.32 502.772 597.75 502.77 597.18 502.77 596.29 503.05 593.05 503.08 592.18 503.08 591.85 502.35 592.03 502.2 591.74 501.88 591.1 501.44 592.83 500.83 593.21 500.257 593.647 499.84 594.257 499.64 594.95 499.08 596.39 498.74 597.95 498.22 599.38 497.768 600.872 496.938 602.223 495.81 603.3 495.28 603.76 494.67 604.13 494.17 604.63 492.57 606.21 492.41 608.72 492.36 610.98 492.32 612.36 492.06 625.5 492.36 625.5Z" id="Path_121" fill="#2F2E41" transform="translate(-211.432 -205.187)"/><path d="M511.5 590.47C510.247 591.125 509.371 592.327 509.13 593.72 508.902 595.099 508.498 596.443 507.93 597.72 506.31 600.54 502.18 601.36 501.03 604.41 500.741 605.436 500.586 606.495 500.57 607.56 500.37 609.75 499.65 611.86 499.43 614.04 499.32 615.737 499.36 617.44 499.55 619.13L501 636.35C501.278 638.883 501.132 641.445 500.57 643.93 502.056 644.142 503.572 643.891 504.91 643.21 506.26 642.59 507.5 641.74 508.81 641.02 511.05 639.78 513.53 638.91 515.5 637.26 515.853 636.979 516.157 636.641 516.4 636.26 516.701 635.537 516.903 634.777 517 634 517.17 633.391 517.388 632.796 517.65 632.22 518.372 630.482 518.999 628.706 519.53 626.9 519.891 625.705 520.178 624.49 520.39 623.26 520.55 622.26 520.64 621.26 520.72 620.26 520.824 618.709 521.134 617.179 521.64 615.71 522.895 612.199 523.606 608.516 523.75 604.79 523.789 604.254 523.752 603.716 523.64 603.19 523.42 602.547 523.125 601.933 522.76 601.36 522.16 600.23 521.76 598.99 521.24 597.84 519.822 595.307 517.789 593.172 515.33 591.63 514.17 590.84 512.81 590 511.5 590.47Z" id="Path_122" fill="#2F2E41" transform="translate(-216.068 -206.683)"/><path d="M481.29 618.57C480.264 618.031 479.334 617.325 478.54 616.48 478.18 616.06 477.88 615.59 477.54 615.17 476.613 614.172 475.407 613.476 474.08 613.17 472.767 612.881 471.424 612.75 470.08 612.78 469.178 612.719 468.272 612.828 467.41 613.1 466.536 613.393 465.87 614.108 465.64 615 465.566 616.106 466.079 617.169 466.99 617.8 467.771 618.441 468.693 618.886 469.68 619.1 470.484 619.243 471.295 619.339 472.11 619.39 476.89 619.89 481.16 622.49 485.35 624.86 489.03 626.953 492.783 628.9 496.61 630.7 496.758 629.556 496.822 628.403 496.8 627.25 496.8 626.39 496.73 625.07 495.92 624.56 494.768 624.078 493.568 623.719 492.34 623.49 489.872 622.684 487.463 621.708 485.13 620.57 483.811 619.981 482.529 619.313 481.29 618.57Z" id="Path_123" fill="#FBBEBE" transform="translate(-204.661 -206.013)"/><ellipse cx="8.52" cy="8.57" rx="8.52" ry="8.57" id="Ellipse_30" fill="#FBBEBE" transform="translate(280.803 372.178)"/><path d="M513.93 600.18C513.25 601.135 512.695 602.173 512.28 603.27 511.28 605.43 509.58 607.27 508.75 609.56 507.92 611.85 507.91 614.79 506.2 616.66 505.858 616.946 505.599 617.319 505.45 617.74 505.443 618.002 505.416 618.262 505.37 618.52 505.12 619.2 504.01 619.23 503.8 619.93 503.74 620.13 503.8 620.35 503.7 620.55 503.53 621 502.93 621.07 502.54 621.34 501.71 621.9 501.88 623.2 501.29 624.01 500.766 624.624 499.953 624.91 499.16 624.76 498.384 624.602 497.638 624.322 496.95 623.93 496.703 623.794 496.431 623.71 496.15 623.68 495.818 623.692 495.497 623.803 495.23 624 493.698 625.128 492.834 626.95 492.93 628.85 493.045 630.724 493.492 632.563 494.25 634.28 494.334 634.577 494.481 634.854 494.68 635.09 495.289 635.568 496.126 635.631 496.8 635.25 497.452 634.862 498.147 634.55 498.87 634.32 500.19 634.08 501.48 634.99 502.82 634.91 503.796 634.766 504.715 634.362 505.48 633.74 506.826 632.937 508.034 631.924 509.06 630.74 509.64 629.97 510.06 629.1 510.58 628.28 511.242 627.283 511.96 626.325 512.73 625.41L517.65 619.41C518.139 618.84 518.58 618.232 518.97 617.59 519.407 616.714 519.743 615.792 519.97 614.84 520.496 613.255 520.832 611.614 520.97 609.95 521 608.574 520.88 607.199 520.61 605.85 520.461 604.506 520.124 603.19 519.61 601.94 518.54 599.68 515.94 597.84 513.93 600.18Z" id="Path_124" fill="#2F2E41" transform="translate(-214.258 -206.139)"/><path d="M531.05 589C531.065 585.918 529.599 583.017 527.11 581.2 527.027 575.627 522.93 570.93 517.42 570.09 516.219 564.095 510.385 560.21 504.39 561.411 499.797 562.332 496.281 566.044 495.61 570.68 492.07 569.88 488.83 570.92 488.24 573.1 487.65 575.28 490.15 578.1 493.88 579.1 495.057 579.43 496.282 579.551 497.5 579.46 499.256 582.048 502.023 583.773 505.12 584.21 506.045 588.414 509.266 591.736 513.44 592.79 514.01 594.157 514.89 595.372 516.01 596.34L516.01 597.17C516.01 601.152 519.238 604.38 523.22 604.38 527.202 604.38 530.43 601.152 530.43 597.17 530.431 596.07 530.195 594.982 529.74 593.98 530.62 592.469 531.073 590.748 531.05 589Z" id="Path_125" fill="#F86D70" transform="translate(-214.765 -202.844)"/><path d="M490.64 573.56C491.23 571.38 494.47 570.34 498.01 571.14 498.877 565.722 503.523 561.718 509.01 561.66L509.74 561.66C508.722 561.35 507.664 561.192 506.6 561.19 501.113 561.248 496.467 565.252 495.6 570.67 492.06 569.87 488.82 570.91 488.23 573.09 487.64 575.27 490.14 578.09 493.87 579.09 494.569 579.284 495.286 579.408 496.01 579.46 492.44 578.39 490.05 575.79 490.64 573.56Z" id="Path_126" opacity="0.1" transform="translate(-211.535 -201.028)"/><path d="M518.37 597.59C518.355 597.317 518.355 597.043 518.37 596.77 517.244 595.807 516.363 594.59 515.8 593.22 511.62 592.171 508.396 588.842 507.48 584.63 504.38 584.202 501.607 582.479 499.85 579.89 499.14 579.949 498.426 579.929 497.72 579.83 499.489 582.209 502.135 583.782 505.07 584.2 505.995 588.404 509.216 591.726 513.39 592.78 513.96 594.147 514.84 595.362 515.96 596.33L515.96 597.16C515.893 601.195 519.096 604.527 523.13 604.62 520.235 603.496 518.339 600.696 518.37 597.59Z" id="Path_127" opacity="0.1" transform="translate(-215.618 -203.32)"/><ellipse cx="1.31" cy="1.75" rx="1.31" ry="1.75" id="Ellipse_31" fill="#FBBEBE" transform="matrix(0.796319 -0.604877 0.604877 0.796319 288.627 382.022)"/></g></g></g></svg>